<svg id="Group_1899" data-name="Group 1899" xmlns="http://www.w3.org/2000/svg" width="7.736" height="7.736" viewBox="0 0 7.736 7.736">
  <path id="Path_686" data-name="Path 686" d="M4.72,3.884,7.613.991a.424.424,0,0,0,0-.6L7.359.14a.424.424,0,0,0-.6,0L3.868,3.032.976.14a.424.424,0,0,0-.6,0L.124.393a.423.423,0,0,0,0,.6L3.016,3.884.124,6.776a.424.424,0,0,0,0,.6l.254.253a.424.424,0,0,0,.6,0L3.868,4.736,6.761,7.628a.42.42,0,0,0,.3.124h0a.42.42,0,0,0,.3-.124l.253-.253a.424.424,0,0,0,0-.6Z" transform="translate(0 -0.016)" fill="#f25757"/>
</svg>
