<svg id="Group_6513" data-name="Group 6513" xmlns="http://www.w3.org/2000/svg" width="9.828" height="9.624" viewBox="0 0 9.828 9.624">
  <g id="caret-down" transform="translate(5.414) rotate(90)">
    <path id="Path_25" data-name="Path 25" d="M9.445,5.235a.578.578,0,0,1-.423.179H.6a.578.578,0,0,1-.423-.179.59.59,0,0,1,0-.846L4.389.179a.59.59,0,0,1,.846,0l4.21,4.211a.59.59,0,0,1,0,.846Z" transform="translate(0 0)" fill="#fff"/>
  </g>
  <g id="caret-down-2" data-name="caret-down" transform="translate(9.828) rotate(90)">
    <path id="Path_25-2" data-name="Path 25" d="M9.445,5.235a.578.578,0,0,1-.423.179H.6a.578.578,0,0,1-.423-.179.59.59,0,0,1,0-.846L4.389.179a.59.59,0,0,1,.846,0l4.21,4.211a.59.59,0,0,1,0,.846Z" transform="translate(0 0)" fill="#fff"/>
  </g>
</svg>
