<svg width="1440" height="565" viewBox="0 0 1440 565" fill="none" xmlns="http://www.w3.org/2000/svg">
<mask id="mask0" style="mask-type:alpha" maskUnits="userSpaceOnUse" x="0" y="0" width="1440" height="565">
<rect width="1440" height="564.621" transform="matrix(-1 0 0 1 1440 0)" fill="#327886"/>
</mask>
<g mask="url(#mask0)">
<path d="M909.092 -127.825L562.462 884.596C558.538 895.933 568.566 907.269 580.338 905.089L1625.02 688.391C1636.8 685.775 1641.59 671.822 1633.74 662.666L935.689 -133.057C927.84 -142.213 913.016 -139.161 909.092 -127.825Z" fill="url(#paint0_linear)"/>
<path d="M641.38 -139.161L808.809 6.46763C812.733 9.51972 812.733 15.1879 809.681 19.112L355.356 527.939C348.816 535.351 336.607 527.503 340.531 518.346L627.428 -136.108C630.044 -141.341 637.02 -143.085 641.38 -139.161Z" fill="url(#paint1_linear)"/>
<g style="mix-blend-mode:multiply">
<path d="M809.681 -44.1095C805.757 -25.3609 762.156 18.2403 734.251 41.785C702.422 68.3818 616.091 78.8461 586.007 26.5246C545.893 -42.8014 706.782 -74.6303 725.966 -79.4264C793.984 -96.8669 818.837 -90.3268 809.681 -44.1095Z" fill="white"/>
<path d="M809.681 -44.1093C805.757 -25.3608 762.156 18.2404 734.251 41.7851C702.422 68.3818 616.091 78.8461 586.007 26.5247C546.329 -42.8013 706.782 -74.1942 725.531 -78.9903C793.549 -96.4308 818.837 -89.8907 809.681 -44.1093Z" fill="white"/>
<path d="M809.681 -44.1091C805.757 -25.3606 762.156 17.8047 734.251 41.3494C702.422 67.9461 616.527 78.4104 586.442 26.5249C546.765 -42.3651 706.782 -73.7579 725.966 -78.5541C793.548 -95.9946 818.837 -89.8904 809.681 -44.1091Z" fill="#FFFFFE"/>
<path d="M809.244 -44.1094C805.32 -25.3608 761.719 17.8044 733.814 41.3491C701.985 67.9459 616.091 78.4101 586.442 26.5247C546.765 -42.3653 706.782 -73.7582 725.53 -78.5543C793.548 -95.9948 818.837 -89.4547 809.244 -44.1094Z" fill="#FEFEFE"/>
<path d="M809.244 -44.1096C805.32 -25.7971 761.719 17.8042 733.814 40.9128C701.985 67.5096 616.091 77.9739 586.442 26.0884C547.201 -42.3655 706.782 -73.7584 725.53 -78.5545C793.112 -95.559 818.4 -89.4549 809.244 -44.1096Z" fill="#FEFEFE"/>
<path d="M809.244 -44.1098C805.32 -25.7973 761.719 17.368 733.814 40.9126C701.985 67.5094 616.09 77.9737 586.878 26.5242C547.637 -41.9297 706.781 -73.3226 725.966 -78.1188C793.112 -95.5593 818.4 -89.4551 809.244 -44.1098Z" fill="#FEFEFD"/>
<path d="M809.244 -44.1091C805.32 -25.7966 761.719 17.3687 733.814 40.4773C701.985 67.0741 616.526 77.5384 586.878 26.0889C548.073 -41.929 706.781 -73.322 725.53 -78.1181C792.676 -95.1226 818.4 -89.0184 809.244 -44.1091Z" fill="#FEFEFD"/>
<path d="M809.244 -44.1092C805.756 -25.7967 761.719 17.3686 733.814 40.4772C701.985 66.638 616.527 77.5383 587.314 26.0888C548.509 -41.9291 707.218 -72.886 725.966 -77.6822C792.676 -95.1227 818.401 -89.0185 809.244 -44.1092Z" fill="#FEFDFD"/>
<path d="M809.245 -44.1091C805.757 -25.7966 761.72 16.9326 733.815 40.0413C701.986 66.202 616.528 77.1024 587.315 26.0889C548.51 -41.493 706.782 -72.8859 725.531 -77.6821C792.677 -94.6866 818.401 -89.0184 809.245 -44.1091Z" fill="#FDFDFC"/>
<path d="M809.244 -44.1094C805.756 -25.7969 761.719 16.9324 733.814 40.041C702.421 66.2018 616.527 77.1021 587.75 26.0886C549.381 -41.0573 707.218 -72.4502 725.966 -77.2463C792.24 -94.6868 818.401 -88.5827 809.244 -44.1094Z" fill="#FDFDFC"/>
<path d="M809.244 -44.1092C805.756 -25.7966 761.719 16.4966 733.814 39.6052C702.421 65.766 616.527 76.6663 587.75 25.6528C549.381 -41.4931 706.781 -72.886 725.966 -77.6821C792.24 -94.2506 817.965 -88.5824 809.244 -44.1092Z" fill="#FDFDFC"/>
<path d="M809.244 -44.1099C805.756 -25.7973 762.155 16.4959 733.814 39.6045C702.421 65.7653 616.963 76.2296 588.186 26.0882C549.817 -40.6217 707.217 -72.0147 725.966 -76.8108C791.804 -94.2513 817.964 -88.5831 809.244 -44.1099Z" fill="#FDFCFC"/>
<path d="M809.244 -44.1096C805.756 -25.7971 762.155 16.4961 733.814 39.1688C702.421 65.3295 616.963 75.7938 588.186 25.6524C550.253 -41.0575 707.218 -72.0144 725.966 -76.8106C791.804 -93.8151 817.965 -88.1469 809.244 -44.1096Z" fill="#FDFCFB"/>
<path d="M808.809 -44.1096C805.321 -26.2331 761.72 16.0602 733.379 39.1688C701.986 64.8936 616.527 75.7939 588.187 25.6524C550.254 -40.6215 706.782 -72.0144 725.531 -76.8105C791.368 -93.379 817.965 -88.1468 808.809 -44.1096Z" fill="#FCFCFB"/>
<path d="M808.809 -44.1096C805.321 -26.2331 761.719 16.0601 733.379 38.7328C701.986 64.4575 616.527 75.3578 588.186 25.6524C550.689 -40.6215 706.782 -71.5783 725.53 -76.3745C791.368 -93.379 817.965 -87.7108 808.809 -44.1096Z" fill="#FCFCFB"/>
<path d="M808.808 -44.1095C805.32 -26.233 761.719 15.6242 733.378 38.7329C701.985 64.4576 616.963 75.3579 588.622 25.6525C551.125 -40.1854 707.217 -71.1422 725.966 -76.3744C791.368 -92.9429 817.528 -87.7107 808.808 -44.1095Z" fill="#FCFBFA"/>
<path d="M808.808 -44.1095C805.32 -26.233 761.719 15.6243 733.378 38.2969C701.985 64.0216 616.963 74.922 588.622 25.2165C551.125 -40.1853 706.782 -71.5783 725.53 -76.3744C790.932 -92.9429 817.529 -87.7107 808.808 -44.1095Z" fill="#FCFBFA"/>
<path d="M808.809 -44.1094C805.321 -26.2329 761.719 15.6243 733.814 38.297C702.422 64.0217 617.399 74.922 589.494 25.6526C552.433 -39.7493 707.654 -70.7062 726.402 -75.5023C790.932 -92.5068 817.529 -87.2747 808.809 -44.1094Z" fill="#FCFBFA"/>
<path d="M808.809 -44.1095C805.32 -26.233 761.719 15.1882 733.814 37.8608C702.422 63.5856 617.399 74.4859 589.494 25.2165C552.433 -39.7494 707.218 -71.1423 725.966 -75.9384C790.496 -92.5069 817.529 -87.2748 808.809 -44.1095Z" fill="#FBFBF9"/>
<path d="M808.808 -44.1093C805.32 -26.2328 761.719 15.1884 733.814 37.8611C702.421 63.5858 617.399 74.4861 589.93 25.2167C552.869 -39.7491 707.653 -70.706 726.402 -75.5022C790.496 -92.0706 817.092 -87.2745 808.808 -44.1093Z" fill="#FBFAF9"/>
<path d="M808.809 -44.1092C805.321 -26.2327 761.72 15.1885 733.815 37.4251C702.422 62.7138 617.835 74.0502 589.931 25.2168C553.306 -39.313 707.654 -70.2699 726.402 -75.5021C790.06 -92.0705 817.093 -86.8384 808.809 -44.1092Z" fill="#FBFAF9"/>
<path d="M808.808 -44.1096C805.32 -26.2331 761.719 14.7521 733.814 37.4247C702.421 62.7135 617.835 74.0498 590.366 25.2164C553.741 -39.3134 707.653 -70.2703 726.402 -75.0664C790.06 -91.6349 817.092 -86.8388 808.808 -44.1096Z" fill="#FBFAF8"/>
<path d="M808.809 -44.1096C805.321 -26.6691 761.72 14.7521 733.815 36.9888C702.422 62.2775 617.836 73.6138 590.367 24.7804C554.178 -39.3134 707.654 -70.2703 726.403 -75.0664C790.061 -91.6349 817.094 -86.8388 808.809 -44.1096Z" fill="#FBFAF8"/>
<path d="M808.373 -44.1097C804.885 -26.6692 761.284 14.316 733.379 36.9886C701.986 62.2774 617.399 73.1777 590.367 25.2163C554.178 -38.4415 707.654 -69.8345 725.966 -74.6306C789.624 -91.1991 817.093 -86.4029 808.373 -44.1097Z" fill="#FAF9F8"/>
<path d="M808.373 -44.1098C804.885 -26.6693 761.284 14.3158 733.379 36.5525C701.986 61.8412 617.836 72.7415 590.367 24.7802C554.178 -38.8777 707.218 -69.8346 725.967 -74.6307C789.624 -90.7632 816.657 -86.403 808.373 -44.1098Z" fill="#FAF9F7"/>
<path d="M808.372 -44.1097C804.884 -26.6692 761.283 14.3159 733.378 36.5526C701.985 61.8413 617.835 72.7416 590.802 24.7802C555.049 -38.4416 707.653 -69.3984 726.402 -74.1946C789.188 -90.763 816.657 -85.9669 808.372 -44.1097Z" fill="#FAF9F7"/>
<path d="M808.373 -44.1098C804.885 -26.6693 761.284 13.8799 733.379 36.1165C701.986 61.4053 617.835 72.3056 590.803 24.7802C555.05 -38.4416 707.218 -69.3985 725.966 -74.1946C789.188 -90.3271 816.657 -85.967 808.373 -44.1098Z" fill="#FAF9F7"/>
<path d="M808.373 -44.1092C804.884 -26.6687 761.719 13.8805 733.378 36.1171C701.985 60.9698 617.835 72.3061 591.238 24.7808C555.485 -38.005 707.653 -68.9619 726.402 -73.7581C789.188 -90.3266 816.657 -85.9664 808.373 -44.1092Z" fill="#FAF9F7"/>
<path d="M808.372 -44.1096C804.884 -26.6691 761.719 13.444 733.378 35.6806C701.985 60.5334 618.271 71.8697 591.238 24.3443C555.921 -38.4415 707.653 -69.3983 725.966 -74.1945C788.752 -89.8909 816.657 -85.5308 808.372 -44.1096Z" fill="#F9F8F6"/>
<path d="M808.373 -44.1094C804.884 -26.6689 761.719 13.4443 733.378 35.6809C701.985 60.5336 618.271 71.8699 591.674 24.7806C556.357 -37.5692 707.653 -68.5261 726.402 -73.3222C788.752 -89.8907 816.221 -85.5306 808.373 -44.1094Z" fill="#F9F8F6"/>
<path d="M808.373 -44.109C804.885 -26.6685 761.72 13.0086 733.379 35.2452C701.986 60.098 618.272 71.4343 591.675 24.3449C556.794 -38.0049 707.654 -68.5257 726.403 -73.3218C788.316 -89.4543 816.221 -85.5302 808.373 -44.109Z" fill="#F9F8F6"/>
<path d="M808.373 -44.109C804.885 -26.6685 761.72 13.0087 733.379 35.2453C701.986 60.098 618.272 71.4343 592.111 24.345C557.23 -37.5688 708.09 -68.5256 726.403 -73.3218C788.316 -89.4542 816.221 -85.0941 808.373 -44.109Z" fill="#F9F8F5"/>
<path d="M808.373 -44.1093C804.885 -27.1048 761.72 13.0084 733.379 34.809C701.986 59.6617 618.271 70.998 592.111 24.3447C557.23 -37.1331 707.654 -68.0899 726.402 -72.8861C787.88 -89.0185 816.221 -85.0945 808.373 -44.1093Z" fill="#F9F7F5"/>
<path d="M807.937 -44.1093C804.448 -27.1048 761.283 12.5724 732.942 34.809C701.549 59.2257 618.271 70.998 592.11 24.3447C557.665 -37.1331 707.654 -68.0899 725.966 -72.8861C787.88 -89.0185 816.221 -85.0945 807.937 -44.1093Z" fill="#F8F7F5"/>
<path d="M807.936 -44.1094C804.448 -27.1049 761.283 12.5722 732.942 34.3729C701.549 58.7896 618.271 70.5619 592.11 23.9086C557.665 -37.1332 707.217 -68.09 725.966 -72.8862C787.88 -88.5826 815.784 -84.6585 807.936 -44.1094Z" fill="#F8F7F4"/>
<path d="M807.937 -44.1095C804.448 -27.105 761.283 12.5721 732.942 34.3728C701.549 58.7895 618.271 70.5618 592.547 24.3445C558.102 -36.6973 707.654 -67.2181 726.402 -72.0143C787.444 -88.1467 815.785 -84.6587 807.937 -44.1095Z" fill="#F8F7F4"/>
<path d="M807.937 -44.1098C804.449 -27.1054 761.283 12.1358 732.942 33.9364C701.55 58.3531 618.271 69.6894 592.547 23.9081C558.538 -36.6976 707.654 -67.6545 725.966 -72.4507C787.444 -88.1471 815.785 -84.223 807.937 -44.1098Z" fill="#F8F6F4"/>
<path d="M807.937 -44.1097C804.449 -27.1052 761.283 12.136 732.943 33.9366C701.55 58.3533 618.707 69.6896 592.983 23.9083C558.974 -36.6974 707.654 -67.2183 726.402 -72.0144C787.008 -87.7109 815.785 -84.2228 807.937 -44.1097Z" fill="#F8F6F3"/>
<path d="M807.936 -44.1097C804.448 -27.5412 761.283 11.6999 732.942 33.5006C701.549 57.9173 618.707 69.2536 592.982 23.9083C559.409 -36.2614 707.654 -67.2183 725.966 -72.0144C787.008 -87.7109 815.785 -84.2228 807.936 -44.1097Z" fill="#F7F6F3"/>
<path d="M807.937 -44.109C804.449 -27.1046 761.284 11.7006 732.943 33.5012C701.55 57.4819 618.708 69.2542 593.419 23.9089C559.846 -35.8248 708.09 -66.7817 726.403 -71.5778C787.008 -87.2743 815.349 -83.7862 807.937 -44.109Z" fill="#F7F6F3"/>
<path d="M807.936 -44.109C804.884 -27.1046 761.283 11.7006 732.942 33.0652C701.549 57.0459 618.707 68.8182 593.418 23.4729C559.845 -36.2608 707.654 -66.7817 726.402 -71.5778C786.572 -87.2743 815.349 -83.7862 807.936 -44.109Z" fill="#F7F5F2"/>
<path d="M807.937 -44.1092C804.885 -27.5407 761.283 11.2644 733.379 33.065C701.986 57.0457 619.143 68.8181 594.291 23.9088C561.154 -35.3889 708.526 -66.3458 726.838 -71.142C786.572 -86.8384 815.349 -83.7863 807.937 -44.1092Z" fill="#F7F5F2"/>
<path d="M807.5 -44.1095C804.448 -27.541 760.847 11.2641 732.942 32.6287C701.549 56.6094 619.143 68.3817 593.854 23.4724C560.717 -35.8253 707.653 -66.3461 726.402 -71.1423C786.136 -86.8387 815.349 -83.3506 807.5 -44.1095Z" fill="#F7F5F2"/>
<path d="M807.5 -44.11C804.448 -27.5415 760.847 10.8276 732.942 32.6282C701.549 56.6089 619.143 68.3812 594.29 23.4719C561.153 -35.3898 708.089 -66.3466 726.402 -71.1428C786.136 -86.4032 815.349 -83.3512 807.5 -44.11Z" fill="#F6F5F2"/>
<path d="M807.501 -44.1099C804.449 -27.5414 760.848 10.8277 732.943 32.1923C701.55 56.173 619.144 67.9453 594.727 23.4721C562.026 -35.3896 708.526 -65.9105 726.839 -70.7066C785.7 -86.403 814.913 -83.351 807.501 -44.1099Z" fill="#F6F4F1"/>
<path d="M807.501 -44.1094C804.449 -27.541 760.848 10.8281 732.943 32.1927C701.55 56.1734 619.58 67.9458 594.727 23.4725C562.026 -34.9532 708.09 -65.474 726.839 -70.2702C785.7 -85.9666 814.913 -82.9145 807.501 -44.1094Z" fill="#F6F4F1"/>
<path d="M807.501 -44.109C804.449 -27.5406 761.284 10.3925 732.943 31.7572C701.55 55.3018 619.58 67.5102 595.163 23.0369C562.898 -35.3888 708.526 -65.9096 726.839 -70.7058C785.264 -85.9662 814.913 -82.9142 807.501 -44.109Z" fill="#F6F4F1"/>
<path d="M807.501 -44.11C804.449 -27.5416 761.284 10.3916 732.943 31.7562C701.55 55.3008 619.58 67.0731 595.163 23.4719C562.898 -34.5178 708.526 -65.0386 726.839 -69.8347C785.264 -85.5312 814.913 -82.4791 807.501 -44.11Z" fill="#F6F4F0"/>
<path d="M807.5 -44.109C804.448 -27.5405 761.283 9.95656 732.942 31.3212C701.549 54.8658 619.579 66.6382 595.598 23.037C563.769 -34.9527 708.526 -65.4736 726.838 -70.2698C785.264 -85.5302 814.913 -82.4781 807.5 -44.109Z" fill="#F5F4F0"/>
<path d="M807.5 -44.109C804.448 -27.5405 761.283 9.95658 732.942 31.3212C701.549 54.8659 619.579 66.6382 595.598 23.037C563.769 -34.5167 708.526 -65.0376 726.838 -69.8337C784.828 -85.0941 814.913 -82.4781 807.5 -44.109Z" fill="#F5F3F0"/>
<path d="M807.501 -44.1092C804.448 -27.5407 761.283 9.95632 732.942 30.8849C701.549 54.4296 620.015 66.202 596.034 23.0367C564.206 -34.0809 708.526 -64.6018 727.274 -69.3979C784.828 -85.0944 814.477 -82.0423 807.501 -44.1092Z" fill="#F5F3EF"/>
<path d="M807.501 -44.1093C804.449 -27.9768 761.283 9.52026 732.943 30.8849C701.55 54.4295 620.016 66.2019 596.035 23.0367C564.642 -34.0809 708.526 -64.6019 726.839 -69.398C784.392 -84.6584 814.477 -82.0423 807.501 -44.1093Z" fill="#F5F3EF"/>
<path d="M807.065 -44.1093C804.013 -27.9768 760.848 9.5203 732.507 30.4489C701.114 53.9936 619.58 65.7659 596.035 22.6007C564.642 -34.081 708.526 -64.6019 726.839 -69.398C784.392 -84.6584 814.477 -82.0423 807.065 -44.1093Z" fill="#F5F3EF"/>
<path d="M807.065 -44.1097C804.013 -27.9772 760.848 9.08388 732.507 30.4485C701.114 53.5572 619.58 65.7655 596.035 23.0363C564.642 -33.6453 708.09 -64.1662 726.402 -68.5263C784.392 -84.2228 814.477 -81.6067 807.065 -44.1097Z" fill="#F4F2EE"/>
<path d="M807.064 -44.109C804.012 -27.9765 760.847 9.08452 732.506 30.0131C701.113 53.1218 620.015 65.3301 596.47 22.6009C565.513 -33.6447 708.525 -64.1656 726.838 -68.9617C783.955 -83.7861 814.476 -81.6061 807.064 -44.109Z" fill="#F4F2EE"/>
<path d="M807.064 -44.1093C804.012 -27.9768 760.847 9.08423 732.506 30.0128C701.113 53.1215 620.015 65.3299 596.47 22.6006C565.513 -33.645 708.525 -63.7298 726.838 -68.5259C783.956 -83.7864 814.04 -81.6064 807.064 -44.1093Z" fill="#F4F2EE"/>
<path d="M807.064 -44.1097C804.012 -27.9773 760.847 8.64781 732.506 29.5764C701.113 52.6851 620.015 64.8934 596.907 22.6002C566.386 -33.2094 708.526 -63.7303 726.838 -68.5264C783.52 -83.3508 814.041 -81.1708 807.064 -44.1097Z" fill="#F4F2ED"/>
<path d="M807.064 -44.1093C804.012 -27.9768 760.847 8.64825 732.506 29.5768C701.113 52.6855 620.015 64.8938 596.907 22.6006C566.386 -32.773 708.526 -63.2939 726.838 -68.09C783.52 -83.3504 814.041 -81.1704 807.064 -44.1093Z" fill="#F4F1ED"/>
<path d="M807.065 -44.1093C804.013 -27.9768 760.847 8.21222 732.507 29.1408C701.114 52.2495 620.451 64.4578 597.343 22.1646C566.822 -33.209 708.526 -63.2938 726.839 -68.09C783.084 -82.9144 814.041 -80.7343 807.065 -44.1093Z" fill="#F3F1ED"/>
<path d="M807.064 -44.1093C804.012 -27.9768 760.847 8.21219 732.506 28.7048C701.114 51.3774 620.451 64.0218 597.343 22.1646C567.258 -32.773 708.526 -63.2938 726.838 -68.09C783.084 -82.9144 814.041 -80.7343 807.064 -44.1093Z" fill="#F3F1EC"/>
<path d="M807.064 -44.1097C804.012 -28.4133 760.847 8.21176 732.506 28.7043C701.113 51.377 620.451 63.5853 597.778 22.1642C567.693 -32.7734 708.961 -62.8582 727.274 -67.6544C783.084 -82.4788 813.604 -80.7348 807.064 -44.1097Z" fill="#F3F1EC"/>
<path d="M807.065 -44.1093C804.013 -28.4129 760.847 7.77622 732.507 28.2688C701.114 50.9415 620.451 63.1498 597.779 21.7286C567.694 -32.7729 708.526 -63.2939 726.838 -68.09C782.648 -82.4784 813.605 -80.2983 807.065 -44.1093Z" fill="#F3F0EC"/>
<path d="M806.628 -44.1092C803.576 -28.4127 760.411 7.77633 732.07 28.2689C700.677 50.9416 620.015 63.1499 597.778 22.1647C568.129 -32.3369 708.525 -62.4217 726.838 -67.2179C782.648 -82.0423 813.604 -80.2982 806.628 -44.1092Z" fill="#F3F0EC"/>
<path d="M806.629 -44.1092C803.576 -28.4127 760.847 7.7763 732.07 27.8329C700.678 50.5055 620.451 62.7139 597.778 21.7287C568.13 -32.3368 708.526 -62.4217 726.402 -67.2179C782.212 -82.0423 813.605 -80.2982 806.629 -44.1092Z" fill="#F2F0EB"/>
<path d="M806.629 -44.109C803.576 -28.4126 760.847 7.34044 732.506 27.833C701.113 50.5057 620.887 62.7141 598.651 21.7289C569.438 -32.3367 708.962 -62.4216 727.274 -67.2177C782.212 -81.6061 813.605 -79.8621 806.629 -44.109Z" fill="#F2F0EB"/>
<path d="M806.629 -44.1096C803.576 -28.4132 760.847 7.33992 732.506 27.3965C701.113 50.0691 620.887 62.2775 598.651 21.7283C569.438 -31.9012 708.962 -61.9861 727.274 -66.7822C781.776 -81.1706 813.169 -79.8626 806.629 -44.1096Z" fill="#F2EFEB"/>
<path d="M806.629 -44.1096C803.577 -28.4132 760.848 6.9039 732.507 27.3965C701.114 49.6331 620.888 62.2775 599.087 21.7283C569.874 -31.4652 708.962 -61.9861 727.275 -66.7822C781.776 -81.1706 813.169 -79.8626 806.629 -44.1096Z" fill="#F2EFEA"/>
<path d="M806.629 -44.1089C803.577 -28.4125 760.847 6.90453 732.507 26.9611C701.114 49.1977 621.324 61.8421 599.087 21.2929C570.31 -31.9006 708.962 -61.9854 727.274 -66.7816C781.776 -80.734 813.169 -79.426 806.629 -44.1089Z" fill="#F2EFEA"/>
<path d="M806.629 -44.1091C803.577 -28.4126 760.847 6.90442 732.507 26.961C701.114 49.1976 621.323 61.842 599.523 21.7289C570.746 -31.0287 709.398 -61.1135 727.274 -65.9097C781.34 -80.7341 813.169 -79.4261 806.629 -44.1091Z" fill="#F1EFEA"/>
<path d="M806.629 -44.1095C803.577 -28.413 760.847 6.46799 732.507 26.5246C701.114 48.7612 621.323 61.4056 599.523 21.2924C571.182 -31.4651 708.962 -61.5499 727.274 -66.3461C781.34 -80.2985 813.169 -78.9905 806.629 -44.1095Z" fill="#F1EEE9"/>
<path d="M806.628 -44.1092C803.576 -28.8487 760.847 6.46825 732.506 26.5248C701.113 48.7615 621.323 61.4058 599.958 21.2927C571.618 -31.0288 709.398 -61.1137 727.71 -65.9098C780.904 -80.2982 812.733 -78.9902 806.628 -44.1092Z" fill="#F1EEE9"/>
<path d="M806.629 -44.109C803.577 -28.8486 760.847 6.03242 732.507 26.089C701.114 48.3256 621.759 60.97 599.959 21.2928C571.618 -31.0287 709.398 -61.1135 727.274 -65.9097C780.904 -79.8621 812.733 -78.99 806.629 -44.109Z" fill="#F1EEE9"/>
<path d="M806.193 -44.1096C803.577 -28.8492 760.412 6.03182 732.071 26.0884C700.678 47.889 621.324 60.5334 599.959 21.2922C572.054 -30.5933 708.962 -60.6781 727.275 -65.4742C780.904 -79.8626 812.733 -78.5546 806.193 -44.1096Z" fill="#F1EEE8"/>
<path d="M806.193 -44.1094C803.577 -28.8489 760.411 6.03205 732.071 25.6526C700.678 47.4532 621.323 60.0976 599.959 20.8565C572.054 -30.593 708.962 -60.6778 726.838 -65.474C780.468 -79.4264 812.733 -78.5544 806.193 -44.1094Z" fill="#F0EEE8"/>
<path d="M806.193 -44.1093C803.577 -28.8489 760.412 5.59609 732.071 25.6527C700.678 47.4533 621.324 60.0976 600.395 21.2925C572.491 -30.1569 708.962 -60.2418 727.275 -65.0379C780.468 -79.4263 812.734 -78.5543 806.193 -44.1093Z" fill="#F0EDE8"/>
<path d="M806.193 -44.1094C803.577 -28.8489 760.412 5.59608 732.071 25.2166C700.678 47.0173 621.324 59.6616 600.395 20.8565C572.926 -30.1569 708.962 -60.2419 727.275 -65.038C780.032 -78.9904 812.297 -78.1184 806.193 -44.1094Z" fill="#F0EDE7"/>
<path d="M806.193 -44.1099C803.577 -28.8494 760.412 5.15958 732.071 25.2162C700.678 47.0168 621.76 59.6611 600.831 20.856C573.362 -30.1574 709.398 -60.2423 727.275 -64.6024C780.032 -78.9909 812.297 -78.1188 806.193 -44.1099Z" fill="#F0EDE7"/>
<path d="M806.193 -44.1098C803.576 -28.8493 760.411 5.15966 732.07 24.7802C700.677 46.5808 621.759 59.2252 600.83 20.8561C573.798 -29.7213 708.962 -59.8062 727.274 -64.6023C779.596 -78.5547 812.297 -78.1187 806.193 -44.1098Z" fill="#F0EDE7"/>
<path d="M806.193 -44.1095C803.577 -28.8491 760.412 5.15989 732.071 24.7804C700.678 46.5811 621.76 59.2255 601.267 20.8564C574.235 -29.7211 709.398 -59.3699 727.275 -64.1661C779.596 -78.1185 812.297 -77.6825 806.193 -44.1095Z" fill="#F0ECE7"/>
<path d="M806.193 -44.1094C803.577 -29.2849 760.412 4.72403 732.071 24.3446C700.678 45.7092 621.76 58.7896 601.267 20.4205C574.235 -29.7209 709.398 -59.8058 727.275 -64.6019C779.596 -78.1183 812.297 -77.6823 806.193 -44.1094Z" fill="#EFECE6"/>
<path d="M806.193 -44.1093C803.577 -29.2848 760.848 4.72413 732.071 24.3447C700.678 45.7093 622.196 58.7897 601.703 20.8566C575.106 -29.2848 709.398 -58.9337 727.711 -63.7298C779.16 -77.6822 811.861 -77.2462 806.193 -44.1093Z" fill="#EFECE6"/>
<path d="M805.756 -44.1093C803.14 -29.2848 760.411 4.28815 731.634 23.9087C700.241 45.2733 621.759 58.3537 601.267 20.4206C574.67 -29.2848 708.962 -59.3697 726.838 -63.7298C779.16 -77.6822 811.861 -77.2462 805.756 -44.1093Z" fill="#EFECE6"/>
<path d="M805.757 -44.1098C803.141 -29.2854 760.412 4.28758 731.635 23.9081C700.242 45.2728 621.76 58.3531 601.703 20.42C575.106 -28.8494 709.398 -58.9343 727.275 -63.7304C778.724 -77.2468 811.861 -77.2468 805.757 -44.1098Z" fill="#EFEBE5"/>
<path d="M805.757 -44.1096C803.141 -29.2852 760.412 4.28777 731.635 23.4723C700.242 44.8369 621.76 57.9173 601.703 20.4202C575.542 -28.8492 708.962 -58.498 726.839 -63.2941C778.724 -77.2465 811.861 -76.8106 805.757 -44.1096Z" fill="#EFEBE5"/>
<path d="M805.757 -44.11C803.141 -29.2855 760.411 3.85141 731.634 23.472C700.242 44.8366 622.195 57.481 602.139 20.4199C575.978 -28.4135 709.398 -58.4984 727.274 -63.2945C778.288 -76.8109 811.861 -76.8109 805.757 -44.11Z" fill="#EEEBE5"/>
<path d="M805.757 -44.11C803.141 -29.2855 760.411 3.85144 731.635 23.036C700.242 44.4006 622.195 57.0449 602.139 19.9839C576.414 -28.8495 708.962 -58.4984 727.275 -63.2945C778.288 -76.8109 811.425 -76.8109 805.757 -44.11Z" fill="#EEEBE4"/>
<path d="M805.756 -44.1095C803.14 -29.2851 760.411 3.85192 731.634 23.0365C700.241 43.9651 622.195 57.0454 602.575 20.4204C576.85 -27.977 709.398 -58.0619 727.274 -62.422C778.288 -76.3744 811.425 -76.3744 805.756 -44.1095Z" fill="#EEEAE4"/>
<path d="M805.756 -44.1098C803.14 -29.2853 760.411 3.41561 731.634 22.6002C700.241 43.5288 622.195 56.6091 603.01 19.9841C577.286 -28.4133 709.834 -58.0622 727.71 -62.8583C777.851 -76.3747 811.424 -76.3747 805.756 -44.1098Z" fill="#EEEAE4"/>
<path d="M805.757 -44.1098C803.14 -29.2854 760.411 3.41555 732.071 22.6001C700.678 43.5287 622.631 56.609 603.447 19.984C578.158 -27.9774 709.834 -57.6262 727.71 -62.4223C777.852 -75.9387 811.425 -76.3747 805.757 -44.1098Z" fill="#EEEAE3"/>
<path d="M805.756 -44.109C803.14 -29.7206 760.411 2.98031 732.07 22.1649C700.677 43.0935 623.067 56.1738 603.882 19.9848C578.594 -27.5406 710.269 -57.6254 728.146 -62.4215C777.415 -75.5019 811.424 -75.9379 805.756 -44.109Z" fill="#EDEAE3"/>
<path d="M805.756 -44.1095C803.14 -29.7211 760.411 2.97982 732.07 22.1644C700.678 43.093 623.067 56.1733 603.883 19.9843C579.03 -27.5411 710.27 -57.1898 728.146 -61.986C777.416 -75.5024 810.989 -75.9384 805.756 -44.1095Z" fill="#EDE9E3"/>
<path d="M805.321 -44.1092C802.705 -29.7208 759.975 2.9802 731.635 21.7287C700.242 42.6573 622.632 55.7377 603.883 19.5487C579.03 -27.5407 709.834 -57.6255 727.711 -61.9856C777.416 -75.066 810.989 -75.5021 805.321 -44.1092Z" fill="#EDE9E2"/>
<path d="M805.321 -44.11C802.705 -29.7216 759.975 2.54336 731.635 21.7279C700.678 42.2205 622.632 55.7368 603.883 19.9838C579.03 -27.1055 709.834 -56.7544 727.711 -61.5505C776.98 -75.0669 810.989 -75.5029 805.321 -44.11Z" fill="#EDE9E2"/>
<path d="M805.321 -44.1096C802.705 -29.7212 759.975 2.54372 731.635 21.2923C700.678 41.7848 623.067 55.3013 604.319 19.5482C579.902 -27.1051 709.834 -56.754 727.711 -61.5501C776.98 -74.6305 810.989 -75.5025 805.321 -44.1096Z" fill="#EDE9E2"/>
<path d="M805.321 -44.1098C802.705 -29.7214 759.975 2.10751 731.635 21.2921C700.678 41.7846 623.067 55.3011 604.319 19.548C579.902 -27.1053 709.834 -56.7542 727.711 -61.5503C776.544 -74.6307 810.989 -75.0667 805.321 -44.1098Z" fill="#ECE9E2"/>
<path d="M805.321 -44.1092C802.705 -29.7208 759.976 2.10817 731.635 20.8567C700.678 41.3493 623.068 54.8657 604.755 19.5487C580.339 -26.6687 710.27 -56.3175 728.147 -61.1137C776.544 -74.194 810.553 -75.0661 805.321 -44.1092Z" fill="#ECE8E1"/>
<path d="M805.321 -44.1101C802.705 -29.7217 760.412 2.10725 731.635 20.8558C700.678 41.3484 623.068 54.8647 604.755 19.5477C580.775 -26.6696 709.834 -55.8825 727.711 -60.6786C776.108 -74.195 810.553 -75.067 805.321 -44.1101Z" fill="#ECE8E1"/>
<path d="M805.321 -44.1101C802.704 -29.7217 760.411 1.67125 731.634 20.4198C700.677 40.9124 623.503 53.9927 605.191 19.1117C581.21 -26.6696 710.27 -56.3184 728.146 -61.1145C776.108 -73.7589 810.553 -74.6309 805.321 -44.1101Z" fill="#ECE8E1"/>
<path d="M805.32 -44.1094C802.704 -30.157 760.411 1.6719 731.634 20.4204C700.677 40.913 623.503 53.9934 605.191 19.5484C581.646 -25.7969 710.27 -55.4457 727.71 -60.2419C776.108 -73.7582 810.553 -74.6303 805.32 -44.1094Z" fill="#ECE8E0"/>
<path d="M805.32 -44.1097C802.704 -30.1573 760.411 1.23561 731.634 19.9841C700.677 40.0407 623.503 53.5571 605.627 19.1121C582.082 -26.2332 710.27 -55.882 728.146 -60.6782C775.672 -73.3225 810.553 -74.1945 805.32 -44.1097Z" fill="#EBE7E0"/>
<path d="M805.32 -44.1093C802.704 -30.1569 760.411 1.23603 731.634 19.9846C700.677 40.0411 623.503 53.5575 605.627 19.1126C582.082 -25.7967 710.27 -55.4456 728.146 -60.2417C775.672 -72.8861 810.553 -74.1941 805.32 -44.1093Z" fill="#EBE7E0"/>
<path d="M804.884 -44.1097C802.268 -30.1573 759.975 1.23564 731.198 19.5482C700.242 39.6047 623.067 53.1211 605.627 19.1121C582.518 -25.7972 709.834 -55.01 727.71 -59.8061C775.236 -72.8865 810.116 -74.1945 804.884 -44.1097Z" fill="#EBE7DF"/>
<path d="M804.884 -44.1095C802.268 -30.1571 759.975 0.799851 731.198 19.5484C700.242 39.605 623.503 53.1213 605.627 19.1123C582.518 -25.3609 709.834 -55.0097 727.71 -59.8059C775.236 -72.4502 810.116 -73.7583 804.884 -44.1095Z" fill="#EBE7DF"/>
<path d="M804.884 -44.1095C802.268 -30.1571 759.975 0.799826 731.198 19.1123C700.241 39.1689 623.503 52.6853 606.063 18.6764C582.954 -25.7969 710.27 -55.0097 727.71 -59.8059C774.8 -72.4502 810.116 -73.7583 804.884 -44.1095Z" fill="#EBE6DF"/>
<path d="M804.885 -44.109C802.705 -30.1566 759.976 0.36426 731.199 19.1128C700.242 39.1694 623.504 52.6858 606.063 19.1128C583.391 -24.9245 709.834 -54.5733 727.711 -58.9334C774.8 -72.0138 810.117 -73.7579 804.885 -44.109Z" fill="#EAE6DE"/>
<path d="M804.884 -44.1092C802.704 -30.1568 759.975 0.364149 731.198 18.6767C700.242 38.7332 623.503 52.2496 606.499 18.6767C583.826 -24.9246 710.27 -54.5735 728.146 -59.3696C774.8 -72.014 810.117 -73.322 804.884 -44.1092Z" fill="#EAE6DE"/>
<path d="M804.885 -44.1092C802.705 -30.1568 759.976 0.364136 731.199 18.6767C700.242 38.2972 623.94 52.2496 606.499 18.6767C584.262 -24.9246 710.27 -54.1374 727.711 -58.9336C774.364 -71.5779 809.681 -73.322 804.885 -44.1092Z" fill="#EAE6DE"/>
<path d="M804.884 -44.1092C802.704 -30.1568 759.975 -0.0718954 731.198 18.2406C700.241 37.8612 623.939 51.8136 606.935 18.6767C584.698 -24.4886 710.27 -54.1374 728.146 -58.9336C774.363 -71.5779 809.68 -73.322 804.884 -44.1092Z" fill="#EAE5DD"/>
<path d="M804.884 -44.1096C802.704 -30.5932 759.975 -0.0723599 731.198 18.2402C700.242 37.8607 623.939 51.8131 606.935 18.6762C584.698 -24.489 710.27 -53.7019 727.71 -58.4981C773.928 -71.1424 809.681 -72.8865 804.884 -44.1096Z" fill="#EAE5DD"/>
<path d="M804.884 -44.1096C802.704 -30.5932 759.975 -0.0723796 731.198 17.8041C700.241 37.4247 623.939 50.9411 607.37 18.2402C585.57 -24.4891 710.269 -54.1379 728.146 -58.4981C773.927 -71.1424 809.68 -72.8865 804.884 -44.1096Z" fill="#E9E5DD"/>
<path d="M804.884 -44.1093C802.704 -30.5929 759.975 -0.508097 731.198 17.8044C700.241 37.425 624.375 50.9414 607.37 18.6765C585.57 -24.0527 710.269 -53.2656 728.146 -58.0617C773.927 -70.7061 809.68 -72.4501 804.884 -44.1093Z" fill="#E9E5DC"/>
<path d="M804.448 -44.1095C802.268 -30.5931 759.539 -0.508217 730.762 17.3683C699.805 36.9889 623.939 50.5052 607.37 18.2403C586.006 -24.0529 710.27 -53.2657 727.71 -58.0619C773.491 -70.2702 809.244 -72.4503 804.448 -44.1095Z" fill="#E9E4DC"/>
<path d="M804.448 -44.1095C802.268 -30.5931 759.539 -0.944229 731.198 17.3683C700.241 36.9889 624.375 50.5052 607.807 18.2403C586.442 -24.0529 710.27 -53.2657 728.146 -58.0619C773.491 -70.2702 809.244 -72.4503 804.448 -44.1095Z" fill="#E9E4DC"/>
<path d="M804.448 -44.1095C802.268 -30.5931 759.975 -0.944267 731.198 16.9322C700.241 36.1168 624.375 50.0692 608.242 18.2403C586.878 -23.6169 710.705 -52.8297 728.146 -57.6258C773.055 -69.8342 809.244 -72.0143 804.448 -44.1095Z" fill="#E9E4DC"/>
<path d="M804.449 -44.1098C802.269 -30.5934 759.976 -0.944569 731.199 16.9319C700.242 36.1165 624.376 50.0689 608.243 18.24C587.315 -23.1812 710.706 -52.8301 728.147 -57.1902C773.056 -69.8345 809.245 -72.0146 804.449 -44.1098Z" fill="#E8E4DB"/>
<path d="M804.449 -44.1097C802.269 -30.5933 759.976 -1.38044 731.199 16.4961C700.242 35.6806 624.812 49.633 608.679 17.8041C587.751 -23.6171 710.706 -52.8299 728.583 -57.6261C772.62 -69.3984 809.245 -72.0145 804.449 -44.1097Z" fill="#E8E3DB"/>
<path d="M804.448 -44.1096C802.268 -30.5932 759.975 -1.38032 731.198 16.4962C700.241 35.6807 624.811 49.6331 608.679 18.2402C587.75 -22.745 710.706 -51.9578 728.146 -56.7539C772.619 -69.3983 808.808 -71.5784 804.448 -44.1096Z" fill="#E8E3DB"/>
<path d="M804.449 -44.1096C802.269 -31.0292 759.975 -1.81637 731.199 16.0601C700.242 35.2447 624.812 49.1971 609.115 17.8042C588.623 -23.181 710.706 -52.3938 728.582 -57.19C772.62 -68.9623 808.809 -71.5784 804.449 -44.1096Z" fill="#E8E3DA"/>
<path d="M804.449 -44.1094C802.269 -31.029 759.976 -1.81618 731.199 16.0603C700.242 35.2449 624.812 49.1972 609.115 17.8044C588.623 -22.7448 710.706 -51.9576 728.147 -56.7537C772.184 -68.9621 808.809 -71.5782 804.449 -44.1094Z" fill="#E8E3DA"/>
<path d="M804.448 -44.109C802.268 -31.0287 759.975 -1.81583 731.198 15.6247C700.241 34.3732 625.247 48.7616 609.551 17.8047C589.494 -22.7444 711.141 -51.9573 728.582 -56.3174C772.183 -68.5257 808.808 -71.1418 804.448 -44.109Z" fill="#E7E3DA"/>
<path d="M804.448 -44.109C802.268 -31.0287 759.975 -2.25184 731.198 15.6247C700.241 34.3732 625.247 48.7616 609.551 17.8047C589.494 -22.3084 710.706 -51.5213 728.582 -56.3174C771.747 -68.5257 808.808 -71.1418 804.448 -44.109Z" fill="#E7E2D9"/>
<path d="M804.013 -44.1093C801.833 -31.0289 759.539 -2.25206 730.762 15.1884C699.805 33.937 624.811 47.8894 609.551 17.3685C589.494 -22.3086 710.706 -51.5215 728.146 -56.3176C771.748 -68.09 808.373 -70.706 804.013 -44.1093Z" fill="#E7E2D9"/>
<path d="M804.012 -44.11C801.832 -31.0296 759.539 -2.68878 730.762 15.1877C699.805 33.9363 624.811 47.8886 609.551 17.8038C589.93 -21.8734 710.706 -51.0862 728.146 -55.8823C771.311 -67.6547 808.373 -70.7068 804.012 -44.11Z" fill="#E7E2D9"/>
<path d="M804.013 -44.11C801.833 -31.0296 759.539 -2.68881 730.763 14.7517C699.806 33.5002 624.812 47.4526 609.987 17.3678C590.367 -21.8733 710.706 -51.0862 728.147 -55.8823C771.312 -67.6547 808.373 -70.7068 804.013 -44.11Z" fill="#E7E2D8"/>
<path d="M804.013 -44.1088C801.833 -31.0285 759.539 -2.68766 730.763 14.7528C699.806 33.5014 625.248 47.4538 609.987 17.3689C590.367 -21.8722 710.706 -51.085 728.147 -55.4451C771.312 -67.2175 808.373 -70.2696 804.013 -44.1088Z" fill="#E6E1D8"/>
<path d="M804.013 -44.1088C801.833 -31.0285 759.539 -3.12362 730.763 14.3169C699.806 33.0654 625.248 47.0178 610.423 17.369C591.239 -21.4362 710.706 -50.649 728.583 -55.4451C770.876 -67.2175 808.373 -70.2696 804.013 -44.1088Z" fill="#E6E1D8"/>
<path d="M804.013 -44.1093C801.833 -31.029 759.54 -3.12416 730.763 13.8803C699.806 32.1929 625.248 46.5813 610.423 16.9324C591.239 -21.8727 710.706 -50.6495 728.147 -55.4456C770.876 -66.7819 807.937 -70.2701 804.013 -44.1093Z" fill="#E6E1D7"/>
<path d="M804.012 -44.1093C801.832 -31.465 759.539 -3.12414 730.762 13.8803C699.805 32.1929 625.247 46.5813 610.859 16.9324C592.11 -21.4367 711.142 -50.6495 728.582 -55.4456C770.439 -66.7819 807.937 -69.8341 804.012 -44.1093Z" fill="#E6E1D7"/>
<path d="M804.013 -44.1093C801.832 -31.465 759.539 -3.56018 730.762 13.4443C699.805 31.7568 625.683 46.1453 611.295 16.9324C592.546 -21.4367 711.142 -50.2135 728.582 -55.0096C770.439 -66.346 807.937 -69.8341 804.013 -44.1093Z" fill="#E6E0D7"/>
<path d="M804.013 -44.1094C801.832 -31.4651 759.975 -3.56027 730.762 13.4442C699.805 31.7567 625.683 46.1452 611.295 16.9323C592.546 -21.0008 711.142 -49.7776 728.582 -54.5737C770.439 -66.346 807.937 -69.8342 804.013 -44.1094Z" fill="#E5E0D7"/>
<path d="M803.576 -44.1093C801.396 -31.4649 759.539 -3.99611 730.326 13.0084C699.369 31.3209 625.247 45.7093 611.295 16.4965C592.982 -21.0006 711.141 -50.2135 728.582 -55.0096C770.003 -65.9099 807.936 -69.398 803.576 -44.1093Z" fill="#E5E0D6"/>
<path d="M803.577 -44.1098C801.397 -31.4655 759.539 -3.99668 730.327 13.0078C699.37 31.3203 625.248 45.7087 611.295 16.9319C592.983 -20.5652 710.706 -49.342 728.147 -54.1381C770.004 -65.9105 807.937 -69.3986 803.577 -44.1098Z" fill="#E5E0D6"/>
<path d="M803.576 -44.1094C801.396 -31.4651 759.539 -3.99629 730.326 12.5722C699.369 30.8847 625.683 45.2732 611.731 16.4963C593.418 -20.5647 711.142 -49.7776 728.582 -54.1377C769.567 -65.4741 807.5 -68.9621 803.576 -44.1094Z" fill="#E5DFD6"/>
<path d="M803.576 -44.1095C801.396 -31.4651 759.539 -4.43236 730.326 12.5721C699.37 30.4486 625.683 45.2731 611.731 16.4963C593.854 -20.5648 710.706 -49.3417 728.146 -54.1378C769.568 -65.0381 807.501 -68.9622 803.576 -44.1095Z" fill="#E5DFD5"/>
<path d="M803.577 -44.1099C801.397 -31.4655 759.54 -4.43271 730.327 12.1358C699.37 30.0123 625.684 44.4007 612.168 16.4959C594.291 -20.1292 711.142 -48.906 728.583 -53.7021C769.132 -65.0385 807.501 -68.9626 803.577 -44.1099Z" fill="#E4DFD5"/>
<path d="M803.576 -44.1101C801.832 -31.4657 759.539 -4.8689 730.762 12.1356C699.805 30.0121 626.119 44.4005 612.603 16.4957C595.162 -20.1293 711.578 -48.9062 729.018 -53.7023C769.132 -64.6026 807.501 -68.5268 803.576 -44.1101Z" fill="#E4DFD5"/>
<path d="M803.576 -44.1101C801.832 -31.9017 759.539 -4.86893 730.762 11.6995C699.805 29.5761 626.119 43.9645 613.039 16.0597C595.598 -20.1294 711.578 -48.9062 729.018 -53.7023C769.131 -64.6026 807.5 -68.5268 803.576 -44.1101Z" fill="#E4DED4"/>
<path d="M803.576 -44.1088C801.832 -31.9005 759.539 -4.86769 730.762 11.7008C699.805 29.5773 626.555 43.9657 613.039 16.4969C595.598 -19.2561 711.578 -48.469 729.018 -52.8291C768.695 -64.1654 807.064 -68.5255 803.576 -44.1088Z" fill="#E4DED4"/>
<path d="M803.577 -44.1096C801.833 -31.9013 759.539 -5.30451 730.763 11.264C699.806 29.1405 626.556 43.5289 613.475 16.0601C596.471 -19.6929 712.014 -48.4697 729.019 -53.2658C768.696 -64.1661 807.065 -68.0903 803.577 -44.1096Z" fill="#E4DED4"/>
<path d="M803.577 -44.1089C801.832 -31.9006 759.539 -5.30386 730.762 11.2646C699.805 29.1411 626.556 43.5296 613.475 16.0608C596.471 -19.2562 711.578 -48.0331 729.018 -52.8292C768.26 -63.7295 807.065 -68.0896 803.577 -44.1089Z" fill="#E3DED3"/>
<path d="M803.141 -44.1095C801.397 -31.9011 759.103 -5.74036 730.327 10.8281C699.37 28.2686 626.12 43.093 613.475 16.0602C596.907 -19.2568 711.578 -48.0336 729.019 -52.8297C768.26 -63.73 807.065 -67.6542 803.141 -44.1095Z" fill="#E3DED3"/>
<path d="M803.141 -44.1091C801.396 -31.9008 759.103 -5.74002 730.326 10.8284C699.37 28.2689 626.555 43.0934 613.475 16.0606C596.907 -18.8204 711.142 -47.5972 728.582 -52.3934C768.259 -63.2937 807.065 -67.6538 803.141 -44.1091Z" fill="#E3DDD3"/>
<path d="M803.14 -44.1091C801.396 -31.9008 759.103 -5.74004 730.326 10.3924C699.369 27.8329 626.555 42.6573 613.911 15.6246C597.342 -19.2564 711.578 -48.0332 729.018 -52.3934C767.823 -63.2937 806.628 -67.6538 803.14 -44.1091Z" fill="#E3DDD2"/>
<path d="M803.141 -44.1096C801.397 -31.9013 759.103 -6.17654 730.326 10.3919C699.37 27.8324 626.555 42.6569 613.911 16.0601C597.779 -18.3849 711.578 -47.1617 728.582 -51.9579C767.823 -62.8582 806.629 -67.2183 803.141 -44.1096Z" fill="#E3DDD2"/>
<path d="M803.14 -44.1094C801.396 -31.9011 759.103 -6.1763 730.326 9.95616C699.369 27.3967 626.555 42.221 614.347 15.6243C598.215 -18.3847 711.578 -47.1615 729.018 -51.9577C767.387 -62.422 806.629 -67.2181 803.14 -44.1094Z" fill="#E2DDD2"/>
<path d="M803.14 -44.1094C801.396 -31.9011 759.103 -6.1763 730.326 9.95616C699.369 27.3967 626.991 42.221 614.347 15.6243C598.215 -18.3847 711.578 -47.1615 729.018 -51.9577C767.387 -62.422 806.629 -67.2181 803.14 -44.1094Z" fill="#E2DCD2"/>
<path d="M803.141 -44.1091C801.397 -32.3368 759.539 -6.612 730.327 9.52046C699.37 26.961 626.992 41.3493 614.783 15.6246C599.087 -17.9484 712.014 -46.7252 729.019 -51.5213C766.952 -61.9856 806.629 -66.7817 803.141 -44.1091Z" fill="#E2DCD1"/>
<path d="M803.141 -44.1092C801.397 -32.3368 759.54 -6.61208 730.327 9.52039C699.37 26.5249 626.992 41.3493 614.783 15.6245C599.087 -17.9484 711.578 -46.7252 729.019 -51.0853C766.952 -61.9856 806.193 -66.7818 803.141 -44.1092Z" fill="#E2DCD1"/>
<path d="M803.14 -44.1091C801.396 -32.3368 759.539 -7.0481 730.326 9.08436C699.369 26.0888 626.991 40.9133 615.219 15.1886C599.958 -17.9484 712.014 -46.7252 729.018 -51.5213C766.951 -61.5496 806.193 -66.7818 803.14 -44.1091Z" fill="#E2DCD1"/>
<path d="M803.14 -44.1098C801.396 -32.3374 759.539 -7.04873 730.326 9.08373C699.369 26.0882 626.991 40.9126 615.219 15.6239C599.958 -17.513 711.578 -45.8538 729.018 -50.65C766.515 -61.5503 806.193 -66.3464 803.14 -44.1098Z" fill="#E1DBD0"/>
<path d="M802.704 -44.109C800.96 -32.3367 759.103 -7.04795 729.89 8.6485C698.934 25.653 626.991 40.4774 615.219 15.1887C599.958 -17.5122 711.578 -46.2891 729.018 -51.0852C766.515 -61.1135 806.192 -66.3457 802.704 -44.109Z" fill="#E1DBD0"/>
<path d="M802.704 -44.1098C800.96 -32.3374 759.103 -7.48469 729.891 8.64777C698.934 25.6523 626.991 40.4767 615.219 15.188C600.395 -17.513 711.578 -45.8538 728.582 -50.65C766.079 -61.1143 806.192 -65.9104 802.704 -44.1098Z" fill="#E1DBD0"/>
<path d="M802.705 -44.11C800.961 -32.3376 759.104 -7.48493 729.891 8.21152C698.934 25.216 626.992 40.0405 615.655 15.1877C600.831 -17.0772 711.578 -45.854 729.019 -50.2141C766.08 -60.6784 806.193 -65.9106 802.705 -44.11Z" fill="#E1DBCF"/>
<path d="M802.705 -44.11C800.961 -32.3376 759.104 -7.92094 729.891 8.21152C698.934 24.78 626.992 40.0405 615.656 15.1877C600.831 -16.6412 711.578 -45.418 728.583 -50.2141C765.644 -60.6784 805.757 -65.9106 802.705 -44.11Z" fill="#E1DACF"/>
<path d="M802.705 -44.1089C800.961 -32.3366 759.104 -7.91987 729.891 7.77658C698.934 24.3451 627.428 39.6055 616.091 14.7527C601.703 -17.0762 712.014 -45.417 729.019 -50.2131C765.644 -60.2414 805.757 -65.4736 802.705 -44.1089Z" fill="#E0DACF"/>
<path d="M802.704 -44.1098C800.96 -32.7735 759.103 -7.92072 729.89 7.77573C698.934 24.3442 627.427 39.6046 616.091 15.1879C601.703 -16.205 711.578 -44.9818 729.018 -49.3419C765.643 -59.8062 805.756 -65.4744 802.704 -44.1098Z" fill="#E0DACE"/>
<path d="M802.704 -44.1102C800.96 -32.7738 759.103 -8.35712 729.89 7.33932C698.934 23.9078 627.428 39.1682 616.527 14.7515C602.575 -16.6414 712.014 -44.9822 729.018 -49.7783C765.207 -59.8066 805.756 -65.4748 802.704 -44.1102Z" fill="#E0DACE"/>
<path d="M802.705 -44.11C800.961 -32.7737 759.104 -8.35697 729.891 7.33948C698.934 23.908 627.428 39.1684 616.528 14.7517C602.575 -16.2052 711.578 -44.982 729.019 -49.3421C765.208 -59.3704 805.757 -65.0386 802.705 -44.11Z" fill="#E0D9CE"/>
<path d="M802.705 -44.11C800.96 -32.7737 759.104 -8.79301 729.891 6.90344C699.37 23.4719 627.864 38.7324 616.963 14.7517C603.011 -16.2052 712.014 -44.546 729.019 -49.3421C764.772 -59.3704 805.321 -65.0386 802.705 -44.11Z" fill="#E0D9CD"/>
<path d="M802.704 -44.1095C800.96 -32.7732 759.103 -8.79249 730.326 6.90396C699.805 23.4724 628.299 38.2969 617.399 14.7522C603.882 -15.7687 712.45 -44.1094 729.454 -48.9056C764.771 -58.9339 805.32 -65.0381 802.704 -44.1095Z" fill="#DFD9CD"/>
<path d="M802.269 -44.1096C800.524 -32.7733 758.667 -8.79255 729.891 6.46789C699.37 22.6004 627.863 37.8608 617.399 14.3161C603.883 -15.7687 712.014 -44.5456 729.454 -48.9057C764.771 -58.934 805.321 -64.6022 802.269 -44.1096Z" fill="#DFD9CD"/>
<path d="M802.269 -44.11C800.525 -32.7736 758.667 -9.22894 729.891 6.46751C699.37 22.6 627.863 37.8604 617.399 14.7517C603.883 -15.3331 712.014 -43.6739 729.019 -48.4701C764.336 -58.4984 805.321 -64.6025 802.269 -44.11Z" fill="#DFD8CC"/>
<path d="M802.268 -44.1091C800.524 -32.7728 759.103 -9.22811 729.89 6.03233C699.369 22.1648 627.863 37.4253 617.835 14.3166C604.755 -15.3322 712.45 -43.6731 729.454 -48.4692C764.335 -58.4975 805.32 -64.1657 802.268 -44.1091Z" fill="#DFD8CC"/>
<path d="M802.268 -44.1099C800.524 -32.7736 759.103 -9.22892 729.89 6.03151C699.37 22.164 628.3 37.4244 617.835 14.3158C604.755 -15.3331 712.014 -43.6739 729.018 -48.47C763.899 -58.0623 804.885 -64.1665 802.268 -44.1099Z" fill="#DFD8CC"/>
<path d="M802.269 -44.1092C800.525 -32.7729 759.104 -9.66417 729.891 5.59627C699.37 21.7287 628.3 36.9892 618.271 14.3165C605.627 -14.8963 712.45 -43.2371 729.455 -48.0333C763.9 -58.0616 804.885 -64.1658 802.269 -44.1092Z" fill="#DED8CC"/>
<path d="M802.269 -44.1092C800.525 -33.2089 759.104 -9.66414 729.891 5.5963C699.37 21.7288 628.3 36.9892 618.271 14.3165C605.627 -14.8963 712.014 -43.2372 729.455 -47.5973C763.464 -57.6256 804.885 -63.7297 802.269 -44.1092Z" fill="#DED8CB"/>
<path d="M802.268 -44.1092C800.96 -33.2089 759.103 -10.1002 729.89 5.16019C699.369 21.2926 628.299 36.5531 618.707 13.8804C606.063 -14.8964 712.45 -43.2372 729.454 -48.0333C763.463 -57.1896 804.884 -63.7298 802.268 -44.1092Z" fill="#DED7CB"/>
<path d="M802.268 -44.1096C800.96 -33.2093 759.103 -10.1006 729.89 5.1598C699.37 20.8562 628.735 36.5527 618.707 14.3161C606.499 -14.4607 712.45 -42.3656 729.454 -47.1617C763.463 -57.19 804.884 -63.7302 802.268 -44.1096Z" fill="#DED7CB"/>
<path d="M802.269 -44.1097C800.961 -33.2094 759.104 -10.1007 729.891 4.72372C699.37 20.4202 628.736 36.1166 619.144 13.88C606.935 -14.4608 712.45 -42.8016 729.455 -47.5978C763.028 -56.754 804.885 -63.2942 802.269 -44.1097Z" fill="#DED7CA"/>
<path d="M801.833 -44.1096C800.525 -33.2093 758.667 -10.5367 729.454 4.72375C698.933 20.4202 628.299 36.1167 619.143 13.88C607.371 -14.0248 712.45 -42.3656 729.454 -47.1617C763.027 -56.754 804.449 -63.2942 801.833 -44.1096Z" fill="#DDD7CA"/>
<path d="M801.833 -44.1098C800.525 -33.2095 758.667 -10.5368 729.454 4.28758C698.933 19.984 628.3 35.6805 619.143 13.8798C607.371 -14.025 712.45 -42.3657 729.018 -46.7259C762.591 -56.3181 804.449 -62.8584 801.833 -44.1098Z" fill="#DDD6CA"/>
<path d="M801.833 -44.1098C800.525 -33.2095 758.667 -10.9729 729.455 4.28758C698.934 19.984 628.736 35.6805 619.579 13.8798C607.807 -13.5889 712.45 -41.9297 729.455 -46.7259C762.591 -56.3181 804.449 -62.8584 801.833 -44.1098Z" fill="#DDD6C9"/>
<path d="M801.833 -44.1096C800.525 -33.2093 758.668 -10.9727 729.455 3.85176C698.934 19.5482 628.736 34.8086 619.58 13.444C608.243 -14.0248 712.45 -41.9295 729.455 -46.7256C762.592 -55.8819 804.449 -62.8581 801.833 -44.1096Z" fill="#DDD6C9"/>
<path d="M801.833 -44.1094C800.525 -33.2091 758.667 -10.9724 729.455 3.85201C698.934 19.5485 628.736 34.8089 620.016 13.8803C608.679 -13.1525 712.45 -41.4933 729.455 -46.2894C762.155 -55.8817 804.449 -62.4219 801.833 -44.1094Z" fill="#DDD6C9"/>
<path d="M801.833 -44.1097C800.525 -33.6454 758.667 -11.4087 729.455 3.41573C698.934 18.6762 628.736 34.3726 620.016 13.444C608.679 -13.5888 712.45 -41.4936 729.455 -46.2897C762.155 -55.446 804.013 -62.4222 801.833 -44.1097Z" fill="#DCD5C8"/>
<path d="M801.832 -44.1097C800.524 -33.6454 758.667 -11.4087 729.454 3.41574C698.933 18.6762 628.735 34.3726 620.451 13.444C609.551 -13.1528 712.886 -41.4936 729.454 -45.8537C761.719 -55.01 804.012 -62.4222 801.832 -44.1097Z" fill="#DCD5C8"/>
<path d="M801.832 -44.1093C800.524 -33.645 758.667 -11.8443 729.454 2.98009C698.933 18.2405 629.171 33.937 620.451 13.4444C609.551 -12.7164 712.45 -41.0572 729.454 -45.8533C761.719 -55.0096 804.012 -61.9858 801.832 -44.1093Z" fill="#DCD5C8"/>
<path d="M801.832 -44.1094C800.524 -33.6451 758.667 -11.8444 729.454 2.98C698.933 18.2404 629.171 33.9369 620.887 13.4443C610.423 -12.7165 712.886 -40.6213 729.89 -45.4174C761.283 -54.5737 804.012 -61.9859 801.832 -44.1094Z" fill="#DCD5C7"/>
<path d="M801.832 -44.1096C800.524 -33.6453 759.103 -11.8447 729.454 2.54373C698.933 17.8042 629.171 33.5007 620.887 13.0081C610.423 -12.7167 712.885 -41.0575 729.454 -45.8536C761.283 -54.5739 804.012 -61.9861 801.832 -44.1096Z" fill="#DCD4C7"/>
<path d="M801.396 -44.1094C800.088 -33.6451 758.667 -12.2805 729.018 2.54396C698.497 17.8044 628.735 33.5008 620.887 13.4443C610.423 -12.2805 712.449 -40.1852 729.454 -44.9814C761.283 -54.1376 803.576 -61.5499 801.396 -44.1094Z" fill="#DBD4C7"/>
<path d="M801.396 -44.1094C800.088 -33.6451 758.667 -12.2804 729.018 2.10798C698.497 17.3684 629.171 33.0649 620.887 13.0083C610.859 -12.2804 712.45 -40.6212 729.018 -44.9814C760.847 -54.1376 803.576 -61.5499 801.396 -44.1094Z" fill="#DBD4C7"/>
<path d="M801.397 -44.1092C800.088 -33.6449 758.667 -12.2802 729.019 2.10819C698.498 16.9326 629.172 33.0651 621.323 13.0085C611.295 -12.2802 712.45 -40.185 729.454 -44.9812C760.847 -53.7014 803.577 -61.1136 801.397 -44.1092Z" fill="#DBD4C6"/>
<path d="M801.397 -44.1099C800.088 -33.6456 758.667 -12.717 729.019 1.67145C698.498 16.4959 629.172 32.6284 621.323 13.0078C611.295 -11.8449 712.45 -39.7497 729.454 -44.5458C760.411 -53.7021 803.577 -61.1143 801.397 -44.1099Z" fill="#DBD3C6"/>
<path d="M801.396 -44.1097C800.088 -33.6454 758.667 -12.7168 729.454 1.67157C698.933 16.496 629.608 32.6285 622.195 13.0079C612.603 -11.4088 713.322 -39.7496 729.89 -44.1097C760.411 -53.266 803.576 -61.1142 801.396 -44.1097Z" fill="#DBD3C6"/>
<path d="M801.397 -44.1101C800.089 -34.0818 758.668 -13.1532 729.455 1.23524C698.934 16.0597 629.608 32.1921 622.196 12.5715C612.604 -11.8452 712.887 -39.7499 729.891 -44.5461C759.976 -53.2663 803.577 -60.6786 801.397 -44.1101Z" fill="#DAD3C5"/>
<path d="M801.396 -44.1094C800.088 -34.0811 758.667 -13.1524 729.454 1.23597C698.933 16.0604 630.043 31.7568 622.631 13.0083C613.475 -10.9724 713.322 -39.3132 729.89 -43.6733C759.975 -52.8296 803.14 -60.6778 801.396 -44.1094Z" fill="#DAD3C5"/>
<path d="M801.396 -44.1092C800.088 -34.0809 758.667 -13.1523 729.454 0.80012C698.933 15.6245 630.043 31.321 622.631 12.5724C613.475 -11.4082 713.322 -39.313 729.89 -44.1092C759.975 -52.3934 803.14 -60.6776 801.396 -44.1092Z" fill="#DAD3C5"/>
<path d="M801.397 -44.1094C800.089 -34.0811 758.668 -13.5885 729.455 0.799869C698.934 15.6243 630.044 31.3207 623.068 12.5722C613.912 -10.9725 713.322 -38.8773 730.327 -43.6734C759.54 -52.3936 803.141 -60.2419 801.397 -44.1094Z" fill="#DAD2C4"/>
<path d="M801.396 -44.1096C800.088 -34.0813 758.667 -13.5887 729.454 0.363668C698.933 14.7521 630.044 30.8846 623.067 12.572C614.347 -10.9726 713.322 -38.8775 729.89 -43.2376C759.539 -51.9578 803.14 -60.2421 801.396 -44.1096Z" fill="#DAD2C4"/>
<path d="M800.961 -44.1097C799.653 -34.0814 758.231 -14.0249 729.019 0.363531C698.498 14.7519 630.044 30.8844 623.068 12.5719C614.347 -10.5368 712.886 -38.4416 729.891 -43.2377C759.104 -51.958 803.141 -59.8062 800.961 -44.1097Z" fill="#D9D2C4"/>
<path d="M800.961 -44.1096C799.653 -34.0813 758.231 -14.0248 729.019 -0.0723522C698.498 14.3161 630.044 30.4485 623.068 12.136C614.347 -10.5366 712.886 -38.4415 729.455 -43.2376C759.103 -51.5219 802.705 -59.8061 800.961 -44.1096Z" fill="#D9D2C3"/>
<path d="M800.96 -44.109C799.652 -34.0807 758.231 -14.0241 729.018 -0.071705C698.498 14.3167 630.044 30.4491 623.503 12.5726C615.219 -10.1 713.322 -38.0048 729.89 -42.8009C759.103 -51.5212 802.705 -59.8054 800.96 -44.109Z" fill="#D9D1C3"/>
<path d="M800.961 -44.1099C799.653 -34.0816 758.231 -14.4611 729.018 -0.508678C698.498 13.8797 630.044 30.0122 623.503 12.1357C615.219 -10.1009 712.886 -38.0057 729.891 -42.8019C758.667 -51.0861 802.705 -59.3704 800.961 -44.1099Z" fill="#D9D1C3"/>
<path d="M800.96 -44.1099C799.652 -34.5177 758.231 -14.461 729.018 -0.944651C698.497 13.4438 630.479 29.5762 623.939 11.6997C616.091 -10.537 713.322 -38.4418 729.89 -42.8019C758.667 -51.0861 802.704 -59.3704 800.96 -44.1099Z" fill="#D9D1C2"/>
<path d="M800.96 -44.1099C799.652 -34.5176 758.667 -14.461 729.018 -0.944626C698.497 13.4438 630.479 29.5762 623.939 12.1357C616.091 -9.66487 713.322 -37.5697 729.89 -42.3658C758.231 -50.65 802.704 -59.3703 800.96 -44.1099Z" fill="#D8D1C2"/>
<path d="M800.961 -44.1091C800.089 -34.5168 758.667 -14.8962 729.019 -1.37983C698.498 12.5726 630.48 29.141 624.376 11.7005C616.527 -10.1001 713.322 -37.5688 729.891 -42.365C758.231 -50.2132 802.705 -58.9335 800.961 -44.1091Z" fill="#D8D0C2"/>
<path d="M800.961 -44.1091C800.089 -34.5168 758.667 -14.8962 729.019 -1.37983C698.498 12.5726 630.48 29.141 624.376 11.7005C616.963 -9.66407 713.322 -37.5688 729.891 -42.365C757.795 -50.2132 802.269 -58.9335 800.961 -44.1091Z" fill="#D8D0C2"/>
<path d="M800.96 -44.1099C800.088 -34.5176 758.667 -15.3331 729.018 -1.81672C698.497 12.1357 630.479 28.7042 624.811 11.6997C617.399 -9.66491 713.758 -37.1337 730.326 -41.9299C757.795 -49.7781 802.268 -58.9343 800.96 -44.1099Z" fill="#D8D0C1"/>
<path d="M800.96 -44.1094C800.088 -34.5172 758.667 -15.3326 729.018 -1.81625C698.497 12.1362 630.915 28.2686 624.811 11.7002C617.399 -9.22843 713.322 -37.1332 729.89 -41.4933C757.795 -49.7776 802.268 -58.4979 800.96 -44.1094Z" fill="#D8D0C1"/>
<path d="M800.524 -44.1094C799.652 -34.5171 758.231 -15.3325 728.582 -2.25213C698.061 11.7003 630.479 27.8327 624.811 11.2642C617.835 -9.22837 713.322 -37.1332 729.89 -41.9293C757.359 -49.3415 802.268 -58.4978 800.524 -44.1094Z" fill="#D7CFC1"/>
<path d="M800.525 -44.1098C799.653 -34.5175 758.231 -15.7689 728.583 -2.25254C698.062 11.6999 630.48 27.8323 624.812 11.6998C617.835 -8.79274 712.886 -36.2616 729.455 -41.0577C757.359 -49.3419 802.269 -58.0622 800.525 -44.1098Z" fill="#D7CFC0"/>
<path d="M800.524 -44.1095C799.652 -34.5172 758.231 -15.7687 728.582 -2.6883C698.061 11.2641 630.479 27.3965 625.247 11.2641C618.707 -8.79249 713.322 -36.6972 729.89 -41.4934C756.923 -48.9056 802.268 -58.0619 800.524 -44.1095Z" fill="#D7CFC0"/>
<path d="M800.524 -44.1096C799.652 -34.5174 758.231 -16.2048 728.582 -2.68845C698.061 10.8279 630.915 27.3964 625.247 11.2639C618.707 -8.79263 713.322 -36.2614 729.89 -41.0576C756.923 -48.9058 801.832 -58.062 800.524 -44.1096Z" fill="#D7CFC0"/>
<path d="M800.524 -44.1097C799.652 -34.9535 758.231 -16.2049 728.582 -3.12453C698.061 10.3919 630.915 26.9603 625.683 11.2638C619.143 -8.35673 713.322 -36.2615 729.89 -40.6216C756.923 -48.4699 801.832 -57.6261 800.524 -44.1097Z" fill="#D7CEBF"/>
<path d="M800.525 -44.1097C799.652 -34.9535 758.231 -16.2049 728.582 -3.12453C698.062 10.3919 630.916 26.9603 625.684 11.2638C619.579 -8.35673 713.322 -35.8255 729.891 -40.6216C756.487 -48.4699 801.833 -57.6261 800.525 -44.1097Z" fill="#D6CEBF"/>
<path d="M800.524 -44.109C799.652 -34.9527 758.231 -16.6402 728.582 -3.55978C698.061 9.95661 630.915 26.5251 626.119 10.8286C620.015 -8.3559 713.758 -35.8247 729.89 -40.6208C756.487 -48.033 801.832 -57.6253 800.524 -44.109Z" fill="#D6CEBF"/>
<path d="M800.525 -44.1093C799.653 -34.953 758.232 -16.6405 729.019 -3.56011C698.498 9.95627 631.352 26.5247 626.556 11.2643C620.452 -7.48425 713.758 -35.389 730.327 -39.7492C756.052 -47.5974 801.833 -57.1897 800.525 -44.1093Z" fill="#D6CEBE"/>
<path d="M800.524 -44.1094C799.652 -34.9531 758.231 -16.6406 729.018 -3.99623C698.497 9.52015 631.787 26.0887 626.991 10.8282C621.323 -7.92031 714.193 -35.3891 730.762 -40.1852C756.051 -47.5974 801.396 -57.1897 800.524 -44.1094Z" fill="#D6CDBE"/>
<path d="M800.089 -44.1095C799.217 -34.9533 757.795 -17.0768 728.582 -3.9964C698.062 9.51998 631.352 26.0885 626.556 10.8281C620.887 -7.48446 713.322 -35.3893 729.891 -39.7494C755.615 -47.1616 801.397 -56.7539 800.089 -44.1095Z" fill="#D6CDBE"/>
<path d="M800.088 -44.1095C799.216 -34.9533 758.231 -17.0767 728.582 -4.43238C698.061 8.64799 631.351 25.6525 626.991 10.8281C621.759 -7.48447 713.758 -34.9533 730.326 -39.7494C755.615 -47.1616 801.396 -56.7539 800.088 -44.1095Z" fill="#D5CDBD"/>
<path d="M800.088 -44.1094C799.216 -34.9531 758.231 -17.5126 728.582 -4.4322C698.061 8.64818 631.351 25.6527 626.991 10.8282C621.759 -7.04827 713.758 -34.5171 729.89 -39.3132C755.615 -46.7254 801.396 -56.7537 800.088 -44.1094Z" fill="#D5CDBD"/>
<path d="M800.088 -44.1091C799.216 -34.9528 758.231 -17.5123 728.582 -4.86799C698.061 8.21239 631.788 24.7809 627.428 10.3925C622.195 -7.48406 713.758 -34.9528 730.326 -39.3129C755.179 -46.7252 801.396 -56.3175 800.088 -44.1091Z" fill="#D5CDBD"/>
<path d="M800.088 -44.1093C799.216 -34.9531 758.231 -17.5126 728.582 -4.86822C698.061 8.21216 631.787 24.7807 627.863 10.8283C623.067 -6.61224 714.194 -34.0811 730.762 -38.8772C755.179 -46.2894 801.396 -56.3177 800.088 -44.1093Z" fill="#D5CCBC"/>
<path d="M800.088 -44.1093C799.216 -35.3891 758.231 -17.9486 728.582 -5.30419C698.061 7.77618 631.787 24.3446 627.863 10.3922C623.067 -6.61227 714.194 -34.0811 730.326 -38.8772C754.743 -46.2894 800.96 -56.3177 800.088 -44.1093Z" fill="#D5CCBC"/>
<path d="M800.089 -44.1095C799.217 -35.3892 758.231 -17.9487 728.583 -5.30435C698.062 7.77603 631.788 24.3445 628.3 10.3921C623.504 -6.61243 714.194 -34.0812 730.763 -38.8774C754.743 -45.8536 800.961 -55.8818 800.089 -44.1095Z" fill="#D4CCBC"/>
<path d="M800.088 -44.1097C799.216 -35.3895 758.231 -18.385 728.582 -5.74063C698.061 7.33974 632.223 23.9082 628.299 10.3918C623.939 -6.17666 714.194 -33.6454 730.326 -38.4416C754.307 -45.4178 800.96 -55.8821 800.088 -44.1097Z" fill="#D4CCBC"/>
<path d="M800.088 -44.1098C799.216 -35.3895 758.231 -18.385 728.582 -5.74068C698.061 6.90368 632.224 23.9082 628.736 10.3918C624.375 -6.17671 714.194 -33.6455 730.762 -38.0056C754.307 -45.4178 800.96 -55.8821 800.088 -44.1098Z" fill="#D4CBBB"/>
<path d="M800.089 -44.1094C799.217 -35.3892 758.231 -18.3847 728.582 -6.17636C698.062 6.468 632.224 23.4725 628.736 9.95615C624.812 -6.17631 714.194 -33.6451 730.762 -38.4413C754.307 -44.9815 800.961 -55.4458 800.089 -44.1094Z" fill="#D4CBBB"/>
<path d="M799.653 -44.1093C798.781 -35.389 757.795 -18.8205 728.147 -6.17618C698.062 6.46818 631.788 23.4727 628.736 10.3923C624.812 -5.74016 714.194 -32.7729 730.327 -37.5691C753.871 -44.9813 800.961 -55.4456 799.653 -44.1093Z" fill="#D4CBBB"/>
<path d="M799.652 -44.1097C798.78 -35.3895 757.795 -18.8209 728.146 -6.6126C698.061 6.03176 631.787 23.0363 628.735 9.95589C624.811 -5.74056 713.758 -33.2093 730.326 -38.0055C753.871 -44.5457 800.524 -55.01 799.652 -44.1097Z" fill="#D3CBBA"/>
<path d="M799.653 -44.1092C798.781 -35.3889 757.795 -18.8204 728.147 -6.61209C698.062 6.03228 632.224 23.0368 629.172 9.9564C625.684 -5.30404 714.194 -32.7729 730.327 -37.569C753.435 -44.5452 800.525 -55.0095 799.653 -44.1092Z" fill="#D3CABA"/>
<path d="M799.653 -44.1098C799.217 -35.3895 757.795 -19.257 728.147 -7.04869C698.062 5.59567 632.224 22.6002 629.172 9.95583C625.684 -5.3046 714.194 -32.7734 730.327 -37.1335C753.435 -44.1097 800.525 -55.0101 799.653 -44.1098Z" fill="#D3CABA"/>
<path d="M799.653 -44.1098C799.217 -35.8255 757.795 -19.2571 728.146 -7.04871C698.062 5.59565 632.224 22.6002 629.608 9.95581C626.12 -4.86861 714.194 -32.3374 730.762 -37.1335C753.435 -44.1097 800.525 -54.5741 799.653 -44.1098Z" fill="#D3CAB9"/>
<path d="M799.653 -44.1096C799.217 -35.8253 757.796 -19.6928 728.147 -7.48449C698.062 4.72386 632.224 22.1643 629.608 9.51997C626.556 -5.30445 714.194 -32.3372 730.327 -37.1333C753 -43.6735 800.525 -54.5739 799.653 -44.1096Z" fill="#D3CAB9"/>
<path d="M799.652 -44.1096C799.216 -35.8254 757.795 -19.6929 728.146 -7.48455C698.061 4.7238 632.659 22.1643 630.043 9.95595C626.991 -4.43246 714.193 -31.9013 730.762 -36.6974C752.998 -43.2376 800.088 -54.5739 799.652 -44.1096Z" fill="#D3C9B9"/>
<path d="M799.652 -44.1095C799.216 -35.8253 758.231 -19.6928 728.146 -7.9205C698.061 4.28785 632.659 21.2923 630.043 9.52C626.991 -4.86841 714.193 -31.9012 730.326 -36.6973C752.563 -43.2375 800.088 -54.1378 799.652 -44.1095Z" fill="#D2C9B8"/>
<path d="M799.653 -44.1096C799.217 -35.8253 758.232 -20.1289 728.147 -7.9205C698.062 4.28784 632.66 21.2923 630.48 9.51999C627.864 -4.4324 714.63 -31.9012 730.763 -36.2613C752.563 -42.8015 800.089 -54.1378 799.653 -44.1096Z" fill="#D2C9B8"/>
<path d="M799.652 -44.1093C799.216 -35.8251 758.231 -20.1287 728.146 -8.35633C698.061 3.85202 632.659 20.8565 630.479 9.52021C627.863 -3.99618 714.194 -31.465 730.762 -36.2611C752.127 -42.8013 800.088 -53.7016 799.652 -44.1093Z" fill="#D2C9B8"/>
<path d="M799.216 -44.1092C798.78 -35.8249 757.795 -20.5645 727.71 -8.35618C697.625 3.85217 632.223 20.8567 630.479 9.52036C628.299 -3.99602 714.194 -31.0288 730.326 -35.8249C752.127 -42.3651 800.088 -53.7015 799.216 -44.1092Z" fill="#D2C8B7"/>
<path d="M799.216 -44.1096C798.78 -35.8253 757.795 -20.5649 727.71 -8.79253C697.625 3.41582 632.659 20.4203 630.479 9.08394C628.299 -3.99643 714.194 -31.4652 730.326 -36.2613C752.127 -42.3655 800.088 -53.7018 799.216 -44.1096Z" fill="#D2C8B7"/>
<path d="M799.216 -44.1098C798.78 -35.8255 757.795 -20.5651 728.146 -8.79272C698.061 2.97961 633.096 20.4201 631.352 9.51979C629.171 -3.56059 714.63 -30.5934 730.762 -35.3895C751.691 -41.9297 799.652 -53.266 799.216 -44.1098Z" fill="#D1C8B7"/>
<path d="M799.216 -44.1098C798.78 -35.8255 757.795 -21.0011 728.146 -9.22876C698.062 2.54357 633.096 19.9841 631.352 9.08375C629.608 -3.56061 714.63 -30.5934 730.762 -35.3895C751.691 -41.9297 799.652 -53.266 799.216 -44.1098Z" fill="#D1C8B7"/>
<path d="M799.216 -44.1092C798.78 -36.261 757.795 -21.0005 728.146 -9.22819C698.061 2.54415 633.095 19.9846 631.787 9.08432C630.043 -3.56004 714.63 -30.5928 731.198 -35.3889C751.255 -41.4931 799.652 -53.2654 799.216 -44.1092Z" fill="#D1C7B6"/>
<path d="M799.216 -44.1095C798.78 -36.2612 757.795 -21.0008 728.146 -9.66444C698.061 2.1079 633.095 19.5483 631.787 9.08404C630.043 -3.12431 714.629 -30.157 730.762 -34.9532C751.255 -41.4934 799.652 -52.8297 799.216 -44.1095Z" fill="#D1C7B6"/>
<path d="M799.216 -44.1094C798.78 -36.2612 757.795 -21.4367 728.146 -9.66438C698.061 2.10796 633.531 19.5484 632.223 9.08411C630.915 -2.68823 715.066 -30.157 731.198 -34.5171C751.255 -41.0573 799.652 -52.8296 799.216 -44.1094Z" fill="#D1C7B6"/>
<path d="M799.216 -44.1099C798.78 -36.2617 757.795 -21.4372 728.146 -10.1009C698.061 1.67142 633.531 19.1119 632.223 8.64763C630.915 -3.12471 714.629 -30.1575 730.762 -34.9536C750.818 -40.6218 799.652 -52.8302 799.216 -44.1099Z" fill="#D0C7B5"/>
<path d="M799.217 -44.1089C798.781 -36.2607 757.795 -21.4362 728.147 -10.0999C698.062 1.67241 633.532 19.1129 632.66 9.0846C631.352 -2.25172 715.066 -29.2845 731.199 -34.0806C750.819 -40.6208 799.217 -52.3931 799.217 -44.1089Z" fill="#D0C7B5"/>
<path d="M799.216 -44.1098C798.78 -36.2616 757.795 -21.8732 728.146 -10.5369C698.061 1.23547 633.531 18.676 632.659 8.64772C631.787 -2.6886 715.066 -29.7214 731.198 -34.5175C750.383 -40.1857 799.216 -52.394 799.216 -44.1098Z" fill="#D0C6B5"/>
<path d="M798.78 -44.1092C798.344 -36.261 757.359 -21.8726 727.71 -10.5363C697.625 0.800065 633.531 18.6766 632.659 8.64833C631.787 -2.25198 714.63 -29.2848 730.762 -34.0809C750.383 -40.1851 799.216 -51.9574 798.78 -44.1092Z" fill="#D0C6B4"/>
<path d="M798.78 -44.1095C798.344 -36.2613 757.359 -22.3089 727.71 -10.9726C697.625 0.363772 633.531 17.8042 632.659 8.21197C631.787 -2.25233 714.63 -29.7211 730.762 -34.0812C749.947 -39.7494 799.216 -51.9577 798.78 -44.1095Z" fill="#D0C6B4"/>
<path d="M798.78 -44.1095C798.344 -36.2613 757.795 -22.3089 727.71 -10.9725C697.625 0.363792 633.531 17.8043 633.095 8.64803C632.659 -1.81627 714.63 -28.849 730.762 -33.6452C749.947 -39.7493 799.216 -51.9577 798.78 -44.1095Z" fill="#CFC6B4"/>
<path d="M798.78 -44.1093C798.344 -36.2611 757.795 -22.3087 727.71 -11.4084C697.625 -0.0720423 633.531 17.3685 633.095 8.21219C632.659 -1.81609 714.63 -28.8488 730.762 -33.645C749.947 -39.3131 799.216 -51.5215 798.78 -44.1093Z" fill="#CFC5B3"/>
<path d="M798.78 -44.1093C798.78 -36.6971 757.795 -22.7447 727.71 -11.4084C697.625 -0.0720423 633.531 17.3685 633.531 8.21219C633.531 -1.81609 715.066 -28.8488 731.198 -33.645C749.511 -39.3131 798.78 -51.5215 798.78 -44.1093Z" fill="#CFC5B3"/>
<path d="M798.78 -44.1097C798.78 -36.6975 757.795 -22.7451 727.71 -11.8448C697.625 -0.508439 633.967 16.932 633.531 8.21177C633.531 -1.3805 714.63 -28.4133 730.762 -33.2094C749.511 -38.8776 798.78 -51.5219 798.78 -44.1097Z" fill="#CFC5B3"/>
<path d="M798.78 -44.1097C798.78 -36.6975 757.795 -23.181 727.71 -11.8447C697.626 -0.508387 633.968 16.9321 633.968 8.21182C633.968 -1.38045 715.066 -28.4132 731.199 -32.7733C749.075 -38.4415 798.78 -51.0859 798.78 -44.1097Z" fill="#CFC5B2"/>
<path d="M798.78 -44.11C798.78 -36.6978 757.795 -23.1814 727.71 -12.2811C697.626 -1.38078 633.968 16.4958 633.968 7.77551C634.404 -1.38075 715.066 -28.4136 730.762 -33.2097C749.075 -38.4419 798.78 -51.0862 798.78 -44.11Z" fill="#CEC4B2"/>
<path d="M798.78 -44.11C798.78 -36.6978 757.795 -23.1814 727.71 -12.2811C697.626 -1.38078 633.968 16.4957 634.404 8.21147C634.84 -0.508775 715.066 -27.5416 731.198 -32.3377C749.075 -38.0059 798.78 -50.6502 798.78 -44.11Z" fill="#CEC4B2"/>
<path d="M798.345 -44.1097C798.345 -36.6975 757.359 -23.6171 727.275 -12.7168C697.19 -1.8165 633.532 16.0601 633.968 7.77583C634.404 -0.944425 714.63 -27.9772 730.763 -32.7733C748.639 -38.0055 798.781 -50.6499 798.345 -44.1097Z" fill="#CEC4B2"/>
<path d="M798.344 -44.1095C798.344 -36.6973 757.359 -23.6169 727.274 -12.7166C697.189 -1.81628 633.968 16.0603 634.404 7.77605C635.276 -0.508189 715.066 -27.541 730.762 -32.3372C748.639 -37.5693 798.78 -50.6497 798.344 -44.1095Z" fill="#CEC4B1"/>
<path d="M798.344 -44.1091C798.344 -36.6969 757.359 -24.0525 727.274 -13.1522C697.189 -2.25189 633.968 15.6246 634.404 7.77642C635.276 -0.507822 714.63 -27.1046 730.762 -31.9008C748.203 -37.5689 798.344 -50.2133 798.344 -44.1091Z" fill="#CEC3B1"/>
<path d="M798.344 -44.1095C798.344 -36.6972 757.359 -24.0529 727.274 -13.1525C697.189 -2.25224 633.967 15.6243 634.839 7.77606C635.711 -0.0721624 715.065 -27.105 730.762 -31.9011C748.202 -37.1332 798.344 -50.2136 798.344 -44.1095Z" fill="#CDC3B1"/>
<path d="M798.344 -44.1095C798.344 -37.1333 757.359 -24.0529 727.274 -13.5886C697.189 -3.12428 633.967 15.1883 634.839 7.34003C636.147 -0.508197 714.629 -27.105 730.762 -31.9011C747.766 -37.1332 798.344 -50.2136 798.344 -44.1095Z" fill="#CDC3B0"/>
<path d="M798.344 -44.1089C798.344 -37.1327 757.359 -24.4884 727.274 -13.5881C697.19 -3.12376 633.968 14.7528 635.276 7.77659C636.584 0.364381 715.066 -26.6684 731.199 -31.4645C747.767 -36.6967 798.344 -49.7771 798.344 -44.1089Z" fill="#CDC3B0"/>
<path d="M798.344 -44.1095C798.344 -37.1333 757.359 -24.4889 727.71 -14.0246C697.625 -3.56031 634.404 14.3162 636.148 7.33998C637.456 0.363778 715.938 -26.669 731.634 -31.4651C747.767 -36.2612 798.344 -49.7777 798.344 -44.1095Z" fill="#CDC2B0"/>
<path d="M798.344 -44.1095C798.344 -37.1333 757.36 -24.4889 727.711 -14.0246C697.626 -3.56027 634.84 14.3162 636.148 7.34001C637.456 0.363813 715.502 -26.233 731.635 -31.0291C747.331 -36.2612 798.344 -49.7776 798.344 -44.1095Z" fill="#CDC2AF"/>
<path d="M798.344 -44.1089C798.344 -37.1327 757.359 -24.9244 727.71 -14.4601C697.625 -3.99578 634.839 13.8807 636.583 7.34054C638.327 0.800355 715.938 -26.2324 731.634 -31.0286C747.331 -35.8247 797.908 -49.3411 798.344 -44.1089Z" fill="#CCC2AF"/>
</g>
<path d="M988.446 551.919L823.634 -81.6066C821.89 -88.1468 815.349 -91.6349 808.809 -89.4548L97.673 153.84C87.6447 157.328 87.2087 170.845 96.8009 175.205L972.75 565.436C981.47 568.924 991.063 561.076 988.446 551.919Z" fill="url(#paint2_linear)"/>
<path d="M1511.23 227.09L1054.28 432.888L1561.8 424.168L1511.23 227.09Z" fill="url(#paint3_linear)"/>
<path d="M-52.7512 207.905L4.36629 436.811C7.41837 448.148 -3.48205 458.612 -14.8184 455.124L-260.729 377.514C-272.066 374.026 -275.118 358.765 -265.526 351.353L-76.7319 200.057C-68.0117 192.645 -55.3673 197.005 -52.7512 207.905Z" fill="url(#paint4_linear)"/>
<path d="M-13.9462 568.487L357.972 16.9317C361.897 10.8275 371.489 12.5715 372.797 19.9837L473.952 530.99C474.824 535.787 471.336 540.147 466.54 540.583L-6.09801 581.132C-13.0742 582.004 -17.4343 574.156 -13.9462 568.487Z" fill="url(#paint5_linear)"/>
</g>
<defs>
<linearGradient id="paint0_linear" x1="2025.66" y1="-547.62" x2="208.02" y2="1440.2" gradientUnits="userSpaceOnUse">
<stop offset="0.1769" stop-color="#401217"/>
<stop offset="1" stop-color="#950037"/>
</linearGradient>
<linearGradient id="paint1_linear" x1="242.854" y1="369.232" x2="1044.19" y2="-192.151" gradientUnits="userSpaceOnUse">
<stop offset="0.000356916" stop-color="#401217"/>
<stop offset="1" stop-color="#4A1B1E"/>
</linearGradient>
<linearGradient id="paint2_linear" x1="91.194" y1="245.952" x2="986.215" y2="237.071" gradientUnits="userSpaceOnUse">
<stop offset="0.000356916" stop-color="#401217"/>
<stop offset="1" stop-color="#950037"/>
</linearGradient>
<linearGradient id="paint3_linear" x1="1707.05" y1="148.798" x2="1037.07" y2="619.048" gradientUnits="userSpaceOnUse">
<stop offset="0.000356916" stop-color="#401217"/>
<stop offset="1" stop-color="#4A1B1E"/>
</linearGradient>
<linearGradient id="paint4_linear" x1="-479.658" y1="341.447" x2="-41.582" y2="326.032" gradientUnits="userSpaceOnUse">
<stop offset="0.000356916" stop-color="#401217"/>
<stop offset="1" stop-color="#950037"/>
</linearGradient>
<linearGradient id="paint5_linear" x1="218.39" y1="-382.52" x2="238.116" y2="1282.66" gradientUnits="userSpaceOnUse">
<stop offset="0.000356916" stop-color="#401217"/>
<stop offset="1" stop-color="#BB003F"/>
</linearGradient>
</defs>
</svg>
