<svg width="20" height="20" viewBox="0 0 20 20" fill="none" xmlns="http://www.w3.org/2000/svg">
<path d="M17.2841 2.50526H16.7999V1.24211C16.7999 0.547368 16.2525 0 15.5578 0C14.863 0 14.3157 0.547368 14.3157 1.24211V2.50526H11.263V1.24211C11.263 0.547368 10.7157 0 10.0209 0C9.3262 0 8.77883 0.547368 8.77883 1.24211V2.50526H5.7262V1.24211C5.7262 0.547368 5.17883 0 4.4841 0C3.78936 0 3.24199 0.547368 3.24199 1.24211V2.50526H2.75778C1.26304 2.50526 0.0419922 3.72632 0.0419922 5.22105V17.2842C0.0419922 18.7789 1.26304 20 2.75778 20H17.2841C18.7788 20 19.9999 18.7789 19.9999 17.2842V5.22105C19.9999 3.72632 18.7788 2.50526 17.2841 2.50526ZM17.2841 18.1895H2.75778C2.25252 18.1895 1.85252 17.7895 1.85252 17.2842V8.08421H18.1894V17.2842C18.1894 17.7895 17.7894 18.1895 17.2841 18.1895Z" fill="black"/>
<path d="M6.58966 9.896H4.0844C3.89492 9.896 3.7265 10.0644 3.7265 10.2539V11.8539C3.7265 12.0434 3.89492 12.2118 4.0844 12.2118H6.58966C6.77913 12.2118 6.94755 12.0434 6.94755 11.8539V10.2539C6.94755 10.0644 6.77913 9.896 6.58966 9.896Z" fill="black"/>
<path d="M11.2835 9.896H8.75716C8.56768 9.896 8.39926 10.0644 8.39926 10.2539V11.8539C8.39926 12.0434 8.56768 12.2118 8.75716 12.2118H11.2835C11.4729 12.2118 11.6414 12.0434 11.6414 11.8539V10.2539C11.6414 10.0644 11.4729 9.896 11.2835 9.896Z" fill="black"/>
<path d="M15.9781 9.896H13.4518C13.2624 9.896 13.0939 10.0644 13.0939 10.2539V11.8539C13.0939 12.0434 13.2624 12.2118 13.4518 12.2118H15.9571C16.1466 12.2118 16.315 12.0434 16.315 11.8539V10.2539C16.336 10.0644 16.1676 9.896 15.9781 9.896Z" fill="black"/>
<path d="M6.58966 14.0425H4.0844C3.89492 14.0425 3.7265 14.2109 3.7265 14.4004V16.0004C3.7265 16.1898 3.89492 16.3583 4.0844 16.3583H6.58966C6.77913 16.3583 6.94755 16.1898 6.94755 16.0004V14.4004C6.94755 14.2109 6.77913 14.0425 6.58966 14.0425Z" fill="black"/>
<path d="M11.2835 14.0425H8.75716C8.56768 14.0425 8.39926 14.2109 8.39926 14.4004V16.0004C8.39926 16.1898 8.56768 16.3583 8.75716 16.3583H11.2835C11.4729 16.3583 11.6414 16.1898 11.6414 16.0004V14.4004C11.6414 14.2109 11.4729 14.0425 11.2835 14.0425Z" fill="black"/>
<path d="M15.9781 14.0425H13.4518C13.2624 14.0425 13.0939 14.2109 13.0939 14.4004V16.0004C13.0939 16.1898 13.2624 16.3583 13.4518 16.3583H15.9571C16.1466 16.3583 16.315 16.1898 16.315 16.0004V14.4004C16.336 14.2109 16.1676 14.0425 15.9781 14.0425Z" fill="black"/>
</svg>
