<svg width="110" height="104" viewBox="0 0 110 104" fill="none" xmlns="http://www.w3.org/2000/svg">
<path d="M49.6181 28.3106L35.7341 41.5252C39.5538 44.9522 44.6342 46.7932 49.8687 46.7447C55.1032 46.6963 60.1037 44.6939 63.8545 41.327L49.6181 28.3106Z" fill="url(#paint0_linear)"/>
<path d="M49.6187 28.3111L63.745 41.2693C59.936 44.7462 54.9937 46.6386 49.7592 46.687C44.5246 46.7355 39.5024 44.7845 35.6246 41.4675L49.6187 28.3111ZM46.8514 10.3768L2.33181 58.6407C1.36188 59.6765 1.43409 61.4041 2.46995 62.374L6.17322 66.0211C7.20908 66.9911 8.87844 67.0289 9.95841 66.0512L25.2069 51.5871C31.8559 57.9176 40.6837 61.458 50.0398 61.3359C59.3378 61.3238 68.1094 57.5139 74.7118 51.1495L90.5278 65.7048C91.5637 66.6748 93.2913 66.6025 94.2612 65.5667L97.9083 61.8634C98.8782 60.8276 98.916 59.1581 97.9383 58.0782L52.3123 10.1665L52.2023 10.1083C50.6163 8.84752 48.2222 8.84897 46.8514 10.3768Z" fill="url(#paint1_linear)"/>
<path d="M49.6187 28.3111L63.745 41.2693C59.936 44.7462 54.9937 46.6386 49.7592 46.687C44.5246 46.7355 39.5024 44.7845 35.6246 41.4675L49.6187 28.3111ZM46.8514 10.3768L2.33181 58.6407C1.36188 59.6765 1.43409 61.4041 2.46995 62.374L6.17322 66.0211C7.20908 66.9911 8.87844 67.0289 9.95841 66.0512L25.2069 51.5871C31.8559 57.9176 40.6837 61.458 50.0398 61.3359C59.3378 61.3238 68.1094 57.5139 74.7118 51.1495L90.5278 65.7048C91.5637 66.6748 93.2913 66.6025 94.2612 65.5667L97.9083 61.8634C98.8782 60.8276 98.916 59.1581 97.9383 58.0782L52.3123 10.1665L52.2023 10.1083C50.6163 8.84752 48.2222 8.84897 46.8514 10.3768Z" fill="url(#paint2_linear)"/>
<path d="M32.6047 46.9103C31.8219 47.0596 31.4273 47.2733 31.4273 47.2733C31.4273 47.2733 31.3629 47.6616 31.5122 48.4444C31.6615 49.2273 31.8752 49.6218 31.8752 49.6218C31.8752 49.6218 32.2635 49.6863 33.0463 49.537C33.8291 49.3877 34.2237 49.174 34.2237 49.174C34.2237 49.174 34.2882 48.7857 34.1389 48.0028C33.9896 47.22 33.7758 46.8255 33.7758 46.8255C33.7758 46.8255 33.3876 46.761 32.6047 46.9103ZM41.2188 50.0562C41.2188 50.0562 40.7723 50.1017 39.815 50.5811C38.8577 51.0605 38.5731 51.3324 38.5731 51.3324C38.5731 51.3324 38.6187 51.7788 39.0981 52.7362C39.5775 53.6935 39.9594 54.0362 39.9594 54.0362C39.9594 54.0362 40.4059 53.9907 41.3632 53.5113C42.3205 53.0319 42.6051 52.76 42.6051 52.76C42.6051 52.76 42.5595 52.3135 42.0801 51.3562C41.6007 50.3989 41.3288 50.1143 41.2188 50.0562ZM49.7669 51.1963C49.7669 51.1963 49.2623 51.3518 48.5187 52.2258C47.6651 53.0416 47.5424 53.5399 47.5424 53.5399C47.5424 53.5399 47.6981 54.0445 48.572 54.7881C49.3878 55.6417 49.8861 55.7643 49.8861 55.7643C49.8861 55.7643 50.3907 55.6087 51.1343 54.7347C51.9879 53.919 52.1105 53.4206 52.1105 53.4206C52.1105 53.4206 51.9549 52.916 51.0809 52.1725C50.207 51.4289 49.7669 51.1963 49.7669 51.1963ZM61.3489 51.1245C61.2389 51.0664 60.8569 50.7237 60.0867 50.3165C59.2064 49.8512 58.6499 49.8385 58.6499 49.8385C58.6499 49.8385 58.3072 50.2205 57.8419 51.1008C57.3766 51.9811 57.364 52.5375 57.364 52.5375C57.364 52.5375 57.7459 52.8802 58.6262 53.3455C59.5064 53.8109 60.0629 53.8235 60.0629 53.8235C60.0629 53.8235 60.4056 53.4415 60.8709 52.5613C61.2262 51.6228 61.2907 51.2346 61.3489 51.1245ZM67.1307 46.5788C66.3542 46.4499 65.9077 46.4954 65.9077 46.4954C65.9077 46.4954 65.7332 46.8255 65.6043 47.6021C65.4753 48.3786 65.5209 48.825 65.5209 48.825C65.5209 48.825 65.851 48.9995 66.6275 49.1285C67.4041 49.2574 67.8505 49.2118 67.8505 49.2118C67.8505 49.2118 68.025 48.8817 68.1539 48.1052C68.2829 47.3287 68.2373 46.8823 68.2373 46.8823C68.2373 46.8823 68.0173 46.7659 67.1307 46.5788Z" fill="url(#paint3_linear)"/>
<path d="M49.6181 28.3106L35.7341 41.5252C39.5538 44.9522 44.6342 46.7932 49.8687 46.7447C55.1032 46.6963 60.1037 44.6939 63.8545 41.327L49.6181 28.3106Z" fill="#710E2B"/>
<defs>
<linearGradient id="paint0_linear" x1="42.4819" y1="34.0056" x2="56.6188" y2="47.9092" gradientUnits="userSpaceOnUse">
<stop stop-color="#366BB8"/>
<stop offset="1" stop-color="#4887CB"/>
</linearGradient>
<linearGradient id="paint1_linear" x1="35.9385" y1="83.8553" x2="72.4284" y2="22.2492" gradientUnits="userSpaceOnUse">
<stop offset="0.000356916" stop-color="#E0A123"/>
<stop offset="1" stop-color="#FFCC64"/>
</linearGradient>
<linearGradient id="paint2_linear" x1="71.3302" y1="20.1394" x2="38.0968" y2="83.0055" gradientUnits="userSpaceOnUse">
<stop stop-color="#FFAC1C"/>
<stop offset="1" stop-color="#CE9737" stop-opacity="0"/>
</linearGradient>
<linearGradient id="paint3_linear" x1="44.3861" y1="56.9032" x2="54.9867" y2="39.0061" gradientUnits="userSpaceOnUse">
<stop stop-color="#950037"/>
<stop offset="1" stop-color="#B52C50"/>
</linearGradient>
</defs>
</svg>
