<svg width="66" height="66" viewBox="0 0 66 66" fill="none" xmlns="http://www.w3.org/2000/svg">
<path d="M1.67072 22.6375C-4.02866 39.8817 5.32416 58.5873 22.5684 64.2867C39.8127 69.9861 58.5183 60.7794 64.2177 43.389C69.9171 26.1448 60.5642 7.43912 43.32 1.73974C34.6979 -1.18301 25.6373 -0.306189 18.1843 3.49339C10.7313 7.29298 4.59347 14.0153 1.67072 22.6375Z" fill="url(#paint0_linear)"/>
<path d="M28.7046 35.2054C29.8737 37.5436 32.7965 38.5665 35.1347 37.3974C37.4729 36.2283 38.4959 33.3056 37.3268 30.9674C36.1577 28.6292 33.2349 27.6062 30.8967 28.7753C28.4124 29.9444 27.5355 32.8672 28.7046 35.2054Z" fill="url(#paint1_linear)"/>
<path d="M41.8583 37.1051L39.8124 40.0279C39.2278 40.7586 39.0817 41.6354 39.374 42.5122L41.2738 49.2346C41.566 50.1114 42.2967 50.8421 43.1735 51.1344L47.4115 52.5957C48.4345 52.888 49.4575 52.7419 50.1882 52.0112C52.8186 49.673 54.8646 46.7502 56.1798 43.5352C56.6182 42.6584 56.4721 41.4893 55.8875 40.7586L53.5493 37.3974C52.9648 36.6667 52.2341 36.2283 51.3573 36.2283L44.1965 35.936C43.7581 35.936 43.1735 36.0822 42.7351 36.2283C42.4429 36.3745 42.1506 36.6667 41.8583 37.1051ZM25.637 41.7815L20.0838 46.0196C19.3531 46.6041 18.9147 47.3348 18.9147 48.3577V52.7419C18.9147 53.7648 19.4992 54.7878 20.376 55.2262C21.8374 56.1031 23.4449 56.8338 25.0525 57.4183C26.66 58.0029 28.4136 58.2951 30.0211 58.4413C31.0441 58.5874 32.0671 58.149 32.6516 57.2722L35.2821 53.6187C35.8667 52.888 36.0128 52.0112 35.7205 51.1344L33.8207 44.412C33.5285 43.5352 32.7978 42.8045 31.9209 42.5122L28.2675 41.3431C27.5368 41.0509 26.8061 41.197 26.0754 41.4893C25.9293 41.4893 25.7831 41.6354 25.637 41.7815ZM41.7122 16.6458L39.5201 23.0759C39.2278 23.9527 39.374 24.9757 39.9585 25.7064L42.1506 28.7753C42.7351 29.506 43.4658 29.9444 44.3426 29.9444L51.2111 30.2367C52.2341 30.2367 53.1109 29.7982 53.6955 29.0676L56.3259 25.5603C56.9105 24.6834 57.0566 23.6605 56.6182 22.7836C56.4721 22.3452 56.1798 21.9068 56.0337 21.4684C54.5723 18.6918 52.6725 16.2074 50.4804 14.1615C49.7497 13.4308 48.7268 13.2847 47.7038 13.577L43.7581 14.8922C43.6119 14.8922 43.4658 15.0383 43.3197 15.0383C42.4429 15.3306 41.8583 15.9152 41.7122 16.6458ZM8.10048 27.4601C7.22365 30.8212 7.22365 34.3285 7.95433 37.8358C8.10047 38.8588 8.83117 39.7356 9.85413 40.0279L14.0921 41.4893C14.9689 41.7815 15.9919 41.6354 16.7226 41.0508L22.2758 36.8129C23.0065 36.2283 23.4449 35.4976 23.4449 34.4747V30.9674C23.4449 29.9444 23.0065 29.0676 22.2758 28.6291L16.4303 24.5373C15.6996 24.0989 14.8228 23.9527 13.946 24.0989L10.0003 25.268C9.85413 25.268 9.70799 25.4141 9.56185 25.4141C8.83116 25.8525 8.24661 26.5832 8.10048 27.4601ZM20.376 10.6542C19.4992 11.2388 18.9147 12.1156 18.9147 13.1386V17.5227C18.9147 18.5456 19.3531 19.4225 20.0838 19.8609L25.637 23.8066C26.3677 24.245 27.2445 24.3911 28.1214 24.245L31.7748 23.0759C32.6516 22.7836 33.3823 22.053 33.6746 21.1761L35.7205 14.5999C36.0128 13.7231 35.8667 12.8463 35.2821 12.1156L32.9439 8.75442C32.3593 7.87759 31.3364 7.43917 30.3134 7.58531C27.3907 7.87759 24.3218 8.60827 21.5452 10.0696C21.2529 10.2158 20.8145 10.5081 20.376 10.6542Z" fill="url(#paint2_linear)"/>
<defs>
<linearGradient id="paint0_linear" x1="3.47552" y1="47.7379" x2="62.4328" y2="18.2527" gradientUnits="userSpaceOnUse">
<stop stop-color="#FFD478"/>
<stop offset="0.998" stop-color="#C38A29"/>
<stop offset="1" stop-color="#C38A29"/>
</linearGradient>
<linearGradient id="paint1_linear" x1="37.1347" y1="18.8172" x2="29.8537" y2="43.4959" gradientUnits="userSpaceOnUse">
<stop stop-color="#950037"/>
<stop offset="1" stop-color="#B52C50"/>
</linearGradient>
<linearGradient id="paint2_linear" x1="79.965" y1="-28.9627" x2="-0.378189" y2="79.994" gradientUnits="userSpaceOnUse">
<stop stop-color="#950037"/>
<stop offset="1" stop-color="#B52C50"/>
</linearGradient>
</defs>
</svg>
