<svg width="82" height="83" viewBox="0 0 82 83" fill="none" xmlns="http://www.w3.org/2000/svg">
<path d="M38.0864 29.8577L44.6857 36.6165C45.1673 37.1538 46.0446 37.1815 46.5819 36.6999L53.3407 30.1006C55.5465 27.8914 55.6852 24.2405 53.3627 21.865L49.9356 18.3867C47.7264 16.1809 44.0755 16.0422 41.7 18.3647L38.2217 21.7919C37.1188 22.8964 36.5256 24.3968 36.5268 25.8685C36.3864 27.3119 36.9819 28.7548 38.0864 29.8577Z" fill="url(#paint0_linear)"/>
<path d="M10.5678 18.0498C14.1259 44.5084 30.9772 60.3721 38.9061 66.3657L34.6327 66.3973C32.0006 66.3145 29.7949 68.5237 29.8536 71.1839C29.7707 73.8159 31.9798 76.0217 34.6401 75.963L56.262 76.0029C58.894 76.0857 61.0997 73.8766 61.0411 71.2163C61.1239 68.5843 58.9148 66.3785 56.2546 66.4372L51.9811 66.4688C59.9573 60.4062 76.8975 44.7993 80.8391 18.3633C80.9795 16.9198 80.384 15.4769 79.0533 14.7704C77.4677 13.8661 75.8258 13.2447 74.2121 12.4818C72.9947 11.9451 71.8067 12.7384 71.6945 14.0403C69.3074 37.8432 54.0363 52.4583 46.8805 58.0957C46.0038 58.8039 44.8433 58.7199 44.0787 58.1262C36.8575 52.2735 21.8466 37.5121 19.6773 13.6844C19.6198 12.4958 18.3173 11.6478 17.0441 12.1299C15.4315 12.8387 13.8189 13.5475 12.1781 14.3978C11.0465 14.9081 10.34 16.2387 10.3976 17.4273C10.6242 17.7668 10.596 17.9083 10.5678 18.0498Z" fill="url(#paint1_linear)"/>
<path d="M38.0864 29.8577L44.6857 36.6165C45.1673 37.1538 46.0446 37.1815 46.5819 36.6999L53.3407 30.1006C55.5465 27.8914 55.6852 24.2405 53.3627 21.865L49.9356 18.3867C47.7264 16.1809 44.0755 16.0422 41.7 18.3647L38.2217 21.7919C37.1188 22.8964 36.5256 24.3968 36.5268 25.8685C36.3864 27.3119 36.9819 28.7548 38.0864 29.8577Z" fill="url(#paint2_linear)"/>
<path d="M10.5678 18.0498C14.1259 44.5084 30.9772 60.3721 38.9061 66.3657L34.6327 66.3973C32.0006 66.3145 29.7949 68.5237 29.8536 71.1839C29.7707 73.8159 31.9798 76.0217 34.6401 75.963L56.262 76.0029C58.894 76.0857 61.0997 73.8766 61.0411 71.2163C61.1239 68.5843 58.9148 66.3785 56.2546 66.4372L51.9811 66.4688C59.9573 60.4062 76.8975 44.7993 80.8391 18.3633C80.9795 16.9198 80.384 15.4769 79.0533 14.7704C77.4677 13.8661 75.8258 13.2447 74.2121 12.4818C72.9947 11.9451 71.8067 12.7384 71.6945 14.0403C69.3074 37.8432 54.0363 52.4583 46.8805 58.0957C46.0038 58.8039 44.8433 58.7199 44.0787 58.1262C36.8575 52.2735 21.8466 37.5121 19.6773 13.6844C19.6198 12.4958 18.3173 11.6478 17.0441 12.1299C15.4315 12.8387 13.8189 13.5475 12.1781 14.3978C11.0465 14.9081 10.34 16.2387 10.3976 17.4273C10.6242 17.7668 10.596 17.9083 10.5678 18.0498Z" fill="url(#paint3_linear)"/>
<defs>
<linearGradient id="paint0_linear" x1="20.0541" y1="55.7624" x2="65.7698" y2="24.1135" gradientUnits="userSpaceOnUse">
<stop offset="0.000356916" stop-color="#D99E43"/>
<stop offset="1" stop-color="#FFCC64"/>
</linearGradient>
<linearGradient id="paint1_linear" x1="20.0531" y1="55.7629" x2="65.7688" y2="24.1141" gradientUnits="userSpaceOnUse">
<stop offset="0.000356916" stop-color="#D99E43"/>
<stop offset="1" stop-color="#FFCC64"/>
</linearGradient>
<linearGradient id="paint2_linear" x1="39.9604" y1="31.6587" x2="48.7559" y2="22.664" gradientUnits="userSpaceOnUse">
<stop offset="0.000356916" stop-color="#D99E43"/>
<stop offset="1" stop-color="#FFCC64"/>
</linearGradient>
<linearGradient id="paint3_linear" x1="19.6668" y1="61.2044" x2="59.8501" y2="20.1106" gradientUnits="userSpaceOnUse">
<stop offset="0.000356916" stop-color="#D99E43"/>
<stop offset="1" stop-color="#FFCC64"/>
</linearGradient>
</defs>
</svg>
