<svg width="48" height="48" viewBox="0 0 48 48" fill="none" xmlns="http://www.w3.org/2000/svg">
<rect width="48" height="48" fill="#E5E5E5"/>
<g clip-path="url(#clip0)">
<rect width="1440" height="1072" transform="translate(-931 -336)" fill="white"/>
<rect width="48" height="48" rx="15" fill="#B52C50"/>
<path d="M28.4786 27.3002L28.8321 26.9467L28.4786 26.5931L25.8854 24L28.4786 21.4069L28.8321 21.0533L28.4786 20.6998L27.3002 19.5214L26.9467 19.1679L26.5931 19.5214L24 22.1146L21.4069 19.5214L21.0533 19.1679L20.6998 19.5214L19.5215 20.6998L19.1679 21.0533L19.5215 21.4069L22.1146 24L19.5215 26.5931L19.1679 26.9467L19.5215 27.3002L20.6998 28.4786L21.0533 28.8321L21.4069 28.4786L24 25.8854L26.5931 28.4786L26.9467 28.8321L27.3002 28.4786L28.4786 27.3002ZM18.7221 16.101C20.2842 15.0573 22.1206 14.5001 23.9993 14.5C26.5167 14.5075 28.9289 15.5109 30.709 17.291C32.4891 19.0711 33.4925 21.4833 33.5 24.0008C33.4998 25.8794 32.9427 27.7159 31.899 29.2779C30.8551 30.8402 29.3714 32.0578 27.6355 32.7769C25.8996 33.4959 23.9895 33.684 22.1466 33.3175C20.3038 32.9509 18.6111 32.0461 17.2825 30.7175C15.9539 29.3889 15.0491 27.6962 14.6825 25.8534C14.316 24.0105 14.5041 22.1004 15.2231 20.3645C15.9422 18.6286 17.1598 17.1449 18.7221 16.101Z" fill="white" stroke="white"/>
</g>
<defs>
<clipPath id="clip0">
<rect width="1440" height="1072" fill="white" transform="translate(-931 -336)"/>
</clipPath>
</defs>
</svg>
