<svg width="19" height="19" viewBox="0 0 19 19" fill="none" xmlns="http://www.w3.org/2000/svg">
<rect width="19" height="19" rx="9.5" fill="#327886"/>
<path d="M9.49324 2.4165C5.58324 2.4165 2.41699 5.58984 2.41699 9.49984C2.41699 13.4098 5.58324 16.5832 9.49324 16.5832C13.4103 16.5832 16.5837 13.4098 16.5837 9.49984C16.5837 5.58984 13.4103 2.4165 9.49324 2.4165ZM9.50033 15.1665C6.36949 15.1665 3.83366 12.6307 3.83366 9.49984C3.83366 6.369 6.36949 3.83317 9.50033 3.83317C12.6312 3.83317 15.167 6.369 15.167 9.49984C15.167 12.6307 12.6312 15.1665 9.50033 15.1665ZM9.85449 5.95817H8.79199V10.2082L12.5107 12.4394L13.042 11.5682L9.85449 9.67692V5.95817Z" fill="white"/>
</svg>
