<svg xmlns="http://www.w3.org/2000/svg" id="Group_6830" width="102.194" height="99" viewBox="0 0 102.194 99">
    <defs>
        <style>
            .cls-1{fill:#081c3b}
        </style>
    </defs>
    <path id="Path_3287" d="M31.948 19.918a1.582 1.582 0 0 0-2.881.016l-7.709 12.793c-.789 1.233-.23 2.245 1.236 2.245h4.794v4.519a1.768 1.768 0 0 0 1.769 1.868h2.6a1.986 1.986 0 0 0 2.022-1.868v-4.519h4.79c1.469 0 2.012-1.022 1.2-2.258z" class="cls-1" transform="translate(46.064 41.673)"/>
    <path id="Path_3288" d="M95.806 56.583V6.144A6.143 6.143 0 0 0 89.662 0H6.144A6.143 6.143 0 0 0 0 6.144V70.5a6.143 6.143 0 0 0 6.144 6.144h28.985a9.584 9.584 0 0 1-9.581 9.581 1.6 1.6 0 0 0 0 3.194h31.163a25.535 25.535 0 1 0 39.1-32.836zM47.9 67.065a3.194 3.194 0 1 1 3.2-3.194 3.191 3.191 0 0 1-3.2 3.194zM9.581 54.29V9.581h76.645v40.187a25.435 25.435 0 0 0-26.462 4.522zm67.061 35.129a15.974 15.974 0 1 1 15.971-15.977 15.994 15.994 0 0 1-15.971 15.977z" class="cls-1"/>
</svg>
