<svg id="calendar" xmlns="http://www.w3.org/2000/svg" width="12.813" height="14.25" viewBox="0 0 12.813 14.25">
  <g id="Group_5837" data-name="Group 5837">
    <path id="Path_3149" data-name="Path 3149" d="M31.868,1.348H30.322V.719a.719.719,0,1,0-1.438,0v.629H24.9V.719a.719.719,0,1,0-1.438,0v.629H21.913a1.442,1.442,0,0,0-1.438,1.438V12.812a1.442,1.442,0,0,0,1.438,1.438H31.85a1.442,1.442,0,0,0,1.438-1.438V2.785A1.415,1.415,0,0,0,31.868,1.348ZM31.85,12.794H21.913V6.757H31.85v6.038Z" transform="translate(-20.475)" fill="#999fa8"/>
  </g>
</svg>
