<svg xmlns="http://www.w3.org/2000/svg" width="30" height="30" viewBox="0 0 30 30">
    <g opacity="0.4">
        <g fill="#fff" stroke="#081c3b" stroke-width="0.2px" transform="translate(-1464 -1082) translate(1464 1082)">
            <rect width="30" height="30" stroke="none" rx="5"/>
            <rect width="29.8" height="29.8" x=".1" y=".1" fill="none" rx="4.9"/>
        </g>
        <g>
            <g>
                <path fill="#081c3b" fill-rule="evenodd" d="M15.007 26.589h1.8a.509.509 0 0 0 .506-.508v-.391h3.708v.391a.51.51 0 0 0 .509.508h1.8a1.959 1.959 0 0 1 1.38.541.252.252 0 0 1 .063.28.255.255 0 0 1-.238.162H13.8a.256.256 0 0 1-.172-.442 1.953 1.953 0 0 1 1.38-.541zm4.26-8.718a4.936 4.936 0 1 0-4.936-4.936 4.936 4.936 0 0 0 4.936 4.937zm-1.751-4.954h.439a.308.308 0 0 1 .307.307V15.8a.307.307 0 0 0 .306.307h1.4a.307.307 0 0 0 .307-.307v-2.576a.307.307 0 0 1 .307-.307h.439a.306.306 0 0 0 .245-.491L19.512 10.1a.306.306 0 0 0-.49 0l-1.751 2.331a.306.306 0 0 0 .245.491zm-6.882-.95h2.626a6.125 6.125 0 0 0-.077.968h-1.818a.459.459 0 0 0-.46.457V22.6a.261.261 0 0 0 .258.259h16a.258.258 0 0 0 .256-.259v-9.41a.256.256 0 0 0-.256-.259H25.35a6.126 6.126 0 0 0-.077-.968H27.7a.649.649 0 0 1 .647.647V24.6a.649.649 0 0 1-.647.646H10.635a.649.649 0 0 1-.647-.646V12.614a.649.649 0 0 1 .647-.647zm8.532 11.684a.409.409 0 1 1-.409.409.409.409 0 0 1 .409-.409z" transform="translate(-1464 -1082) translate(-487.975 646.593) translate(1957.797 440.121) translate(-9.988 -8)"/>
            </g>
        </g>
    </g>
</svg>
