<svg xmlns="http://www.w3.org/2000/svg" width="30" height="30" viewBox="0 0 30 30">
    <defs>
        <style>
            .cls-3{fill:#081c3b}
        </style>
    </defs>
    <g id="Group_6803" opacity="0.4" transform="translate(-1424 -1082)">
        <g id="Rectangle_3326" fill="#fff" stroke="#081c3b" stroke-width="0.2px" transform="translate(1424 1082)">
            <rect width="30" height="30" stroke="none" rx="5"/>
            <rect width="29.8" height="29.8" x=".1" y=".1" fill="none" rx="4.9"/>
        </g>
        <g id="noun_Scanner_2508606" transform="translate(1418.885 1078.723)">
            <g id="Group_6801" transform="translate(10.37 9.37)">
                <path id="Path_3275" d="M38.751 29.51H36.53v2.19z" class="cls-3" transform="translate(-24.744 -20.436)"/>
                <path id="Path_3276" d="M26.255 29.294v-3.262a.452.452 0 0 1 .451-.451h3.226l-.293-1.5-.018-.081h-9.254l-.009.068v.009l-.888 5.217zm-4.695-4.929h7.028a.451.451 0 0 1 0 .9h-7.027a.451.451 0 0 1 0-.9zm-.523 1.6h4.357a.451.451 0 1 1 0 .9h-4.356a.451.451 0 1 1 0-.9zm-.568 1.617h5.195a.451.451 0 1 1 0 .9H20.47a.451.451 0 1 1 0-.9z" class="cls-3" transform="translate(-15.37 -17.409)"/>
                <path id="Path_3277" d="M11.932 20.994h17.593a.444.444 0 0 0 .378-.207 5.506 5.506 0 0 0 .063-.617H11.49a4.7 4.7 0 0 0 .063.617.45.45 0 0 0 .379.207z" class="cls-3" transform="translate(-10.985 -15.304)"/>
                <path id="Path_3278" d="M23.116 44.38v.266A1.356 1.356 0 0 1 21.764 46h-3.3a1.356 1.356 0 0 1-1.352-1.352v-.268H10.37v1.69c0 .342.577.73 1.352.73h16.787c.775 0 1.352-.387 1.352-.73v-1.69zm2.23 1.793a.581.581 0 1 1 .581-.581.583.583 0 0 1-.581.581zm3-.131h-1.8a.451.451 0 1 1 0-.9h1.8a.451.451 0 1 1 0 .9z" class="cls-3" transform="translate(-10.37 -28.607)"/>
                <path id="Path_3279" d="M28.974 24h-.725l.378 1.946a.437.437 0 0 1 0 .077v.014a.468.468 0 0 1-.032.158.22.22 0 0 0-.014.032.442.442 0 0 1-.081.122l-.009.009-3.761 3.706a.453.453 0 0 1-.32.135h-7.767a.456.456 0 0 1-.342-.158.449.449 0 0 1-.1-.365L17.165 24H16.7l-.018.095v.014L15.3 30.6h15.053l-1.361-6.51z" class="cls-3" transform="translate(-13.079 -17.409)"/>
                <path id="Path_3280" d="M28.041 9.37H14.2l-2 4.415h17.841z" class="cls-3" transform="translate(-11.376 -9.37)"/>
                <path id="Path_3281" d="M18.164 32.732v.716a.452.452 0 0 0 .451.451h3.3a.452.452 0 0 0 .451-.451v-.716a.452.452 0 0 1 .451-.451h7.074l-1.978-8.173V24.1v-.009L27.887 24h-.554l.243 1.225 1.212 5.722a.45.45 0 0 1-.442.545H12.181a.461.461 0 0 1-.351-.167.454.454 0 0 1-.09-.378L13.213 24h-.568l-.027.113-1.978 8.168h7.074a.452.452 0 0 1 .45.451z" class="cls-3" transform="translate(-10.518 -17.409)"/>
            </g>
        </g>
    </g>
</svg>
