<svg width="11" height="12" viewBox="0 0 11 12" fill="none" xmlns="http://www.w3.org/2000/svg">
<path d="M5.60988 1.52107C5.7059 1.32901 5.7059 1.09867 5.59073 0.887468C5.39869 0.561084 4.99561 0.465067 4.66923 0.637826L3.21018 1.48266C2.97984 1.61713 2.82624 1.88593 2.82624 2.15473C2.82624 2.42353 2.97985 2.69233 3.21018 2.8268L4.66923 3.67164C4.7844 3.72923 4.89957 3.76766 4.99559 3.76766C5.22593 3.76766 5.45639 3.65248 5.57158 3.42213C5.6676 3.24936 5.68675 3.0573 5.62917 2.88453C7.35696 3.17248 8.68169 4.68937 8.68169 6.49414C8.68169 8.51017 7.03062 10.1613 5.01478 10.1613C2.9989 10.1611 1.36706 8.50987 1.36706 6.49379C1.36706 5.87932 1.52067 5.26499 1.80859 4.74656C1.98135 4.42017 1.86618 4.01692 1.53982 3.82499C1.21346 3.65222 0.810243 3.7674 0.618327 4.09378C0.21509 4.82342 0.00390625 5.64895 0.00390625 6.49379C0.0231905 9.23946 2.2694 11.4858 5.03391 11.4858C7.79853 11.4858 10.0255 9.23939 10.0255 6.49379C10.0255 3.92102 8.08641 1.80898 5.60987 1.52098L5.60988 1.52107Z" fill="#327886"/>
</svg>
