<svg xmlns="http://www.w3.org/2000/svg" width="34" height="34" viewBox="0 0 34 34">
    <g>
        <g>
            <path fill="#ece6e6" d="M86.33 8.192v20.929a.879.879 0 0 1-.879.879H60.709a.879.879 0 0 1-.879-.879V.879A.879.879 0 0 1 60.709 0h17.322a.879.879 0 0 1 .617.253l7.42 7.312a.879.879 0 0 1 .262.627z" transform="translate(-788 -452) translate(790 454) translate(-56.33)"/>
            <path fill="#eceae7" d="M298.88 7.566L291.473.253a.876.876 0 0 0-.616-.253h-4.942v30h12.349a.879.879 0 0 0 .878-.879V8.192a.88.88 0 0 0-.262-.626z" transform="translate(-788 -452) translate(790 454) translate(-269.141)"/>
            <path fill="#e7dfdd" d="M364.552 8.179v.878h-6.53a2.635 2.635 0 0 1-2.632-2.633V0h.878a.877.877 0 0 1 .616.253l7.407 7.3a.878.878 0 0 1 .261.626z" transform="translate(-788 -452) translate(790 454) translate(-334.552)"/>
            <path fill="#f14d4e" d="M18.464 132.2v9.214a4.633 4.633 0 0 1-4.628 4.628H4.628A4.633 4.633 0 0 1 0 141.412V132.2a4.633 4.633 0 0 1 4.628-4.628h9.208a4.633 4.633 0 0 1 4.628 4.628z" transform="translate(-788 -452) translate(790 454) translate(0 -120.06)"/>
            <path fill="#f4f1f1" d="M103.486 201.09l-2.7-2.7a.877.877 0 0 0-1.241 0l-2.7 2.7a.878.878 0 1 0 1.241 1.241l1.207-1.207v6.376a.878.878 0 0 0 1.755 0v-6.373l1.207 1.207a.878.878 0 0 0 1.241-1.241z" transform="translate(-788 -452) translate(790 454) translate(-90.917 -186.509)"/>
        </g>
        <path fill="none" d="M0 0H34V34H0z" transform="translate(-788 -452) translate(788 452)"/>
    </g>
</svg>
