<svg xmlns="http://www.w3.org/2000/svg" id="noun_webcam_1098536" width="88" height="110" viewBox="0 0 88 110">
    <defs>
        <style>
            .cls-1{fill:#081c3b}
        </style>
    </defs>
    <g id="Group_6829">
        <path id="Path_3284" d="M18.9 27.946a11.032 11.032 0 0 0 11-11c0-8.25-8.25-13.2-15.95-9.9 3.3 3.3-1.65 8.8-4.95 4.95-3.3 7.704 2.2 15.95 9.9 15.95z" class="cls-1" transform="translate(25.101 27.054)"/>
        <path id="Path_3285" d="M70.284 16.5c-17.05 11-40.15 11-57.75 0l-8.8 11a5.471 5.471 0 0 0 4.95 8.25h66a5.471 5.471 0 0 0 4.95-8.25z" class="cls-1" transform="translate(2.316 74.25)"/>
        <path id="Path_3286" d="M46 88A44 44 0 1 0 2 44a44.129 44.129 0 0 0 44 44zm0-82.5a5.2 5.2 0 0 1 5.5 5.5 5.2 5.2 0 0 1-5.5 5.5 5.2 5.2 0 0 1-5.5-5.5A5.2 5.2 0 0 1 46 5.5zM46 22a22 22 0 1 1-22 22 22.065 22.065 0 0 1 22-22z" class="cls-1" transform="translate(-2)"/>
    </g>
</svg>
