
<svg xmlns="http://www.w3.org/2000/svg" width="34" height="34" viewBox="0 0 34 34">
    <g>
        <g>
            <path fill="#f4f1f1" d="M86.341 8.192v20.929a.879.879 0 0 1-.879.879H60.709a.879.879 0 0 1-.879-.879V.879A.879.879 0 0 1 60.709 0h17.329a.879.879 0 0 1 .617.253l7.423 7.312a.879.879 0 0 1 .262.626z" transform="translate(-787 -452) translate(454 -169) translate(278.659 623)"/>
            <path fill="#eceae7" d="M298.839 7.566L291.456.253a.872.872 0 0 0-.615-.253h-4.926v30h12.31a.877.877 0 0 0 .875-.879V8.192a.882.882 0 0 0-.261-.626z" transform="translate(-787 -452) translate(454 -169) translate(65.9 623)"/>
            <path fill="#e7dfdd" d="M364.523 8.154v.875h-6.51A2.627 2.627 0 0 1 355.39 6.4V0h.875a.875.875 0 0 1 .614.252l7.384 7.278a.875.875 0 0 1 .261.623z" transform="translate(-787 -452) translate(454 -169) translate(.477 623)"/>
            <g>
                <path fill="#0f7c3d" d="M18.407 132.184v9.185a4.619 4.619 0 0 1-4.614 4.614H4.614A4.619 4.619 0 0 1 0 141.368v-9.185a4.619 4.619 0 0 1 4.614-4.614h9.179a4.619 4.619 0 0 1 4.614 4.615z" transform="translate(-787 -452) translate(454 -169) translate(335 630.581) translate(0 -127.57)"/>
                <path fill="#fff" d="M12.585 23.538a.841.841 0 1 0-1.278 1.094l2.232 2.6.639-.547-.64.549a.843.843 0 0 0 1.189.091.873.873 0 0 0 .066-.063l7.471-6.953a.841.841 0 1 0-1.146-1.232l-6.872 6.4-1.661-1.937z" transform="translate(-787 -452) translate(454 -169) translate(335 630.581) translate(-7.615 -13.987)"/>
            </g>
        </g>
        <path fill="none" d="M0 0H34V34H0z" transform="translate(-787 -452) translate(787 452)"/>
    </g>
</svg>
