<svg width="18" height="18" viewBox="0 0 18 18" fill="none" xmlns="http://www.w3.org/2000/svg">
<path d="M5.35147 9.86393V8.136C5.35147 7.5024 5.86991 6.98393 6.50354 6.98393H11.3419C11.6683 6.98393 11.918 6.73429 11.918 6.4079L11.9178 0.935898C11.9178 0.609515 11.6682 0.359863 11.3418 0.359863H0.935409C0.609026 0.359863 0.359375 0.609504 0.359375 0.935898V17.0639C0.359375 17.3903 0.609016 17.6399 0.935409 17.6399H11.3418C11.6682 17.6399 11.9178 17.3903 11.9178 17.0639V11.5919C11.9178 11.2655 11.6682 11.0159 11.3418 11.0159H6.50341C5.86981 11.0159 5.35148 10.4974 5.35148 9.86379L5.35147 9.86393Z" fill="white"/>
<path d="M17.465 9.40316C17.6954 9.1728 17.6954 8.80799 17.465 8.59676L13.7018 4.85276C13.3563 4.50723 13.1834 4.62241 13.2986 5.08312L13.8746 7.42552C13.8937 7.50226 13.8362 7.55999 13.7594 7.55999H6.50182C6.17543 7.55999 5.92578 7.80963 5.92578 8.13602V9.86395C5.92578 10.1903 6.17542 10.44 6.50182 10.44H13.7594C13.8362 10.44 13.8939 10.4976 13.8746 10.5744L13.2986 12.9168C13.1834 13.3777 13.3753 13.4736 13.7018 13.1472L17.465 9.40316Z" fill="white"/>
</svg>
