<svg xmlns="http://www.w3.org/2000/svg" width="66" height="65" viewBox="0 0 66 65">
    <g fill="#f14d4e" transform="translate(-286 -235)">
        <rect width="66" height="65" opacity="0.12" rx="15" transform="translate(286 235)"/>
        <path d="M38.885 19H22.824A3.824 3.824 0 0 0 19 22.824v16.061a3.824 3.824 0 0 0 3.824 3.824h16.061a3.824 3.824 0 0 0 3.824-3.824V22.824A3.824 3.824 0 0 0 38.885 19zm-16.826 3.824a.765.765 0 0 1 .765-.765h3.442v3.824h-4.207zm0 6.118h4.206v3.824h-4.206zm.765 10.707a.765.765 0 0 1-.765-.765v-3.058h4.206v3.824zm16.826-.765a.765.765 0 0 1-.765.765h-9.56v-3.823H39.65zm0-6.118H29.325v-3.823H39.65zm0-6.883H29.325v-3.824h9.56a.765.765 0 0 1 .765.765z" transform="translate(288.203 236.702)"/>
    </g>
</svg>
