<svg xmlns="http://www.w3.org/2000/svg" width="84" height="84" viewBox="0 0 84 84">
    <defs>
        <style>
            .cls-1{fill:#f9ede0}
        </style>
    </defs>
    <g id="user_pic" transform="translate(-.165 -.165)">
        <g id="Group_5809" transform="translate(54.293 81.161)">
            <path id="Path_3111" d="M299.9 451.92c-.439.148-.881.292-1.326.425.448-.134.889-.278 1.326-.425z" class="cls-1" transform="translate(-298.576 -451.112)"/>
            <path id="Path_3112" d="M311.551 447.472c-.474.189-.948.375-1.431.547.48-.173.958-.358 1.431-.547z" class="cls-1" transform="translate(-308.022 -447.472)"/>
        </g>
        <ellipse id="Ellipse_1239" cx="42" cy="41.876" fill="#efece8" rx="42" ry="41.876" transform="translate(.165 .165)"/>
        <g id="Group_5810" transform="translate(23.926 80.025)">
            <path id="Path_3113" d="M288.037 455.584q-.646.179-1.3.339.655-.16 1.3-.339z" class="cls-1" transform="translate(-258.548 -452.974)"/>
            <path id="Path_3114" d="M208.279 462.739c-.515-.036-1.028-.076-1.535-.131.509.055 1.022.092 1.535.131z" class="cls-1" transform="translate(-193.096 -458.721)"/>
            <path id="Path_3115" d="M171.4 455.915q-.654-.159-1.3-.339.644.181 1.3.339z" class="cls-1" transform="translate(-163.109 -452.967)"/>
            <path id="Path_3116" d="M195.745 461.116c-.461-.06-.92-.122-1.377-.2.455.078.916.139 1.377.2z" class="cls-1" transform="translate(-182.969 -457.34)"/>
            <path id="Path_3117" d="M221.592 463.705c-.776 0-1.546-.025-2.312-.065.766.041 1.535.065 2.312.065z" class="cls-1" transform="translate(-203.353 -459.566)"/>
            <path id="Path_3118" d="M183.479 458.841c-.442-.081-.883-.169-1.319-.265.44.096.877.183 1.319.265z" class="cls-1" transform="translate(-172.98 -455.422)"/>
            <path id="Path_3119" d="M133.863 442.22q-.984-.412-1.943-.868.96.458 1.943.868z" class="cls-1" transform="translate(-131.872 -441.329)"/>
            <path id="Path_3120" d="M147.431 448.019c-.481-.173-.957-.358-1.431-.547.474.189.95.374 1.431.547z" class="cls-1" transform="translate(-143.393 -446.336)"/>
            <path id="Path_3121" d="M234.312 463.64c-.766.041-1.536.065-2.312.065.776 0 1.546-.024 2.312-.065z" class="cls-1" transform="translate(-213.761 -459.566)"/>
            <path id="Path_3122" d="M250.344 462.608c-.509.055-1.022.095-1.536.131.513-.039 1.027-.076 1.536-.131z" class="cls-1" transform="translate(-227.514 -458.721)"/>
            <path id="Path_3123" d="M275.911 458.576c-.438.1-.877.183-1.319.265.441-.082.881-.169 1.319-.265z" class="cls-1" transform="translate(-248.612 -455.422)"/>
            <path id="Path_3124" d="M263.441 460.912c-.457.074-.916.137-1.377.2.459-.063.92-.125 1.377-.2z" class="cls-1" transform="translate(-238.361 -457.333)"/>
            <path id="Path_3125" d="M323.326 441.368q-.953.456-1.934.865c.653-.273 1.298-.56 1.934-.865z" class="cls-1" transform="translate(-286.905 -441.342)"/>
            <path id="Path_3126" d="M159.454 452.345c-.446-.134-.887-.278-1.326-.425.439.147.88.291 1.326.425z" class="cls-1" transform="translate(-153.316 -449.976)"/>
            <path id="Path_3127" d="M318.617 446.128c-.2.086-.412.161-.617.243.2-.082.411-.157.617-.243z" class="cls-1" transform="translate(-284.13 -445.237)"/>
            <path id="Path_3128" d="M332.09 441.224l-.058.026c.019-.009.039-.016.058-.026z" class="cls-1" transform="translate(-295.611 -441.224)"/>
            <path id="Path_3129" d="M178.146 457.653l-.89-.2q.444.102.89.2z" class="cls-1" transform="translate(-168.968 -454.499)"/>
            <path id="Path_3130" d="M190.308 460.192c-.3-.049-.6-.1-.9-.16.301.055.599.112.9.16z" class="cls-1" transform="translate(-178.911 -456.613)"/>
            <path id="Path_3131" d="M215.935 463.385c-.249-.013-.5-.039-.743-.057.249.017.494.044.743.057z" class="cls-1" transform="translate(-200.008 -459.31)"/>
            <path id="Path_3132" d="M202.816 462.11c-.292-.032-.582-.073-.872-.11.291.038.58.078.872.11z" class="cls-1" transform="translate(-189.168 -458.224)"/>
            <path id="Path_3133" d="M131.705 441.254l-.049-.022z" class="cls-1" transform="translate(-131.656 -441.23)"/>
            <path id="Path_3134" d="M245.463 463.328c-.249.017-.494.044-.743.057.249-.013.494-.04.743-.057z" class="cls-1" transform="translate(-224.169 -459.31)"/>
            <path id="Path_3135" d="M294.747 454.256c-.282.084-.566.163-.851.241.285-.078.569-.157.851-.241z" class="cls-1" transform="translate(-264.407 -451.887)"/>
            <path id="Path_3136" d="M306.652 450.48c-.256.092-.515.174-.772.262.257-.088.52-.17.772-.262z" class="cls-1" transform="translate(-274.213 -448.798)"/>
            <path id="Path_3137" d="M143.233 446.379c-.205-.081-.413-.159-.617-.243.204.084.411.164.617.243z" class="cls-1" transform="translate(-140.624 -445.243)"/>
            <path id="Path_3138" d="M154.652 450.742c-.257-.087-.518-.17-.772-.262.254.092.513.174.772.262z" class="cls-1" transform="translate(-149.84 -448.798)"/>
            <path id="Path_3139" d="M258.128 462c-.291.038-.58.08-.872.11.292-.032.582-.072.872-.11z" class="cls-1" transform="translate(-234.427 -458.224)"/>
            <path id="Path_3140" d="M282.738 457.44q-.443.107-.89.205.452-.096.89-.205z" class="cls-1" transform="translate(-254.549 -454.492)"/>
            <path id="Path_3141" d="M270.532 460.032c-.3.055-.6.112-.9.16.302-.048.601-.105.9-.16z" class="cls-1" transform="translate(-244.553 -456.613)"/>
            <path id="Path_3142" d="M166.275 454.5c-.284-.078-.569-.157-.851-.241.282.081.566.16.851.241z" class="cls-1" transform="translate(-159.286 -451.887)"/>
        </g>
        <path id="Path_3143" fill="#c6c3bd" d="M95.571 103.981a17.491 17.491 0 1 0-19.351 0 33.518 33.518 0 0 0-22.877 24c.461.554.939 1.095 1.427 1.626.118.129.242.253.363.38.376.4.756.791 1.147 1.175.162.158.327.311.491.467.361.343.727.682 1.1 1.012.185.163.373.324.56.484q.549.469 1.114.919c.2.159.4.314.6.47q.573.441 1.162.858c.2.144.4.291.608.432.414.285.835.558 1.259.829.191.121.378.246.57.365.49.3.988.589 1.491.871.133.074.262.154.4.227q.975.532 1.981 1.016l.05.022q.96.458 1.947.868c.2.086.413.161.618.243.475.189.95.375 1.434.547.257.092.516.174.774.262.44.148.883.292 1.329.425.283.084.567.163.853.241q.647.179 1.3.339.444.107.892.205c.439.1.879.183 1.322.265.3.055.6.112.9.16.458.074.918.137 1.38.2.292.038.582.08.875.111.51.055 1.025.095 1.539.131.249.017.5.044.745.057.768.044 1.539.068 2.318.068s1.549-.025 2.318-.065c.249-.013.5-.039.745-.057.516-.036 1.031-.076 1.539-.131.293-.032.583-.073.875-.111.462-.06.923-.122 1.38-.2.3-.049.6-.1.9-.16.443-.081.885-.169 1.322-.265q.448-.1.892-.205.656-.159 1.3-.339c.284-.079.57-.157.853-.241.447-.134.889-.278 1.329-.425.258-.087.519-.17.774-.262.482-.173.959-.358 1.434-.547.206-.081.414-.158.618-.243.654-.273 1.3-.56 1.939-.865l.058-.026q1.006-.482 1.981-1.016c.134-.073.264-.153.4-.227.5-.282 1-.57 1.491-.871.192-.118.38-.243.57-.365.424-.27.845-.545 1.259-.829.2-.141.405-.286.608-.432q.588-.421 1.162-.858c.2-.154.4-.311.6-.47q.564-.449 1.114-.919c.188-.16.376-.321.56-.484.373-.33.739-.669 1.1-1.012.163-.156.329-.31.491-.467q.586-.576 1.147-1.175c.12-.128.243-.252.363-.38.488-.531.966-1.072 1.427-1.626a33.513 33.513 0 0 0-22.87-24.002z" transform="translate(-43.73 -59.086)"/>
    </g>
</svg>
