<svg xmlns="http://www.w3.org/2000/svg" width="17.434" height="15.433" viewBox="0 0 17.434 15.433">
  <g id="export" transform="translate(0 -32.57)">
    <g id="Group_5787" data-name="Group 5787" transform="translate(0 33.142)">
      <g id="Group_5786" data-name="Group 5786">
        <path id="Path_3103" data-name="Path 3103" d="M12.575,72.04v4.537H2.286V66.288h3.43V64H1.143A1.144,1.144,0,0,0,0,65.145V77.72a1.143,1.143,0,0,0,1.143,1.143H13.718a1.142,1.142,0,0,0,1.143-1.143V72.04Z" transform="translate(0 -64.002)" fill="#fff"/>
      </g>
    </g>
    <g id="Group_5789" data-name="Group 5789" transform="translate(5.43 32.57)">
      <g id="Group_5788" data-name="Group 5788">
        <path id="Path_3104" data-name="Path 3104" d="M139.8,35.1l-4-3a.5.5,0,0,0-.8.4V34h-1.5a5.507,5.507,0,0,0-5.5,5.5.5.5,0,0,0,.947.224l.118-.235A4.476,4.476,0,0,1,133.091,37H135v1.5a.5.5,0,0,0,.8.4l4-3a.5.5,0,0,0,0-.8Z" transform="translate(-128 -31.998)" fill="#fff"/>
      </g>
    </g>
  </g>
</svg>
