<svg width="120" height="26" viewBox="0 0 120 26" fill="none" xmlns="http://www.w3.org/2000/svg">
<g id="Logo">
<g id="Group 7759">
<path id="Vector" d="M6.45515 16.7521V19.8546H5.31027C1.66572 19.8546 0 18.6127 0 13.6496V4.96423H3.85221V13.6496C3.85221 15.3249 4.37187 15.7186 5.31027 15.7186H5.41355L6.45515 16.7521Z" fill="#D5CC65"/>
<path id="Vector_2" d="M10.8282 16.752V19.8546H6.24864L5.20703 18.82V15.7186H9.78768L10.8282 16.752Z" fill="#D5CC65"/>
<path id="Vector_3" d="M15.2023 16.752V19.8546H10.6215L9.58105 18.82V15.7186H14.1607L15.2023 16.752Z" fill="#D5CC65"/>
<path id="Vector_4" d="M19.5752 16.752V19.8546H14.9957L13.9541 18.82V15.7186H18.5347L19.5752 16.752Z" fill="#D5CC65"/>
<path id="Vector_5" d="M23.9495 16.752V19.8546H19.3676L18.3271 18.82V15.7186H22.9079L23.9495 16.752Z" fill="#D5CC65"/>
<path id="Vector_6" d="M29.2597 7.7766C29.2597 8.91374 28.6356 9.61739 27.3231 9.61739C26.76 9.61739 26.3025 9.36919 25.9904 8.95566C25.7406 9.65932 25.1155 10.1347 24.1793 10.1347C22.9922 10.1347 22.3881 9.41111 22.1593 8.2112L21.9717 7.21855C22.4914 6.99025 23.0333 6.84577 23.5963 6.7432C23.8462 8.10746 23.8673 8.48025 24.4092 8.48025C24.8256 8.48025 24.9499 8.16927 24.9499 7.83952C24.9499 7.71486 24.9289 7.5902 24.9089 7.48765L24.7412 6.78401L26.2825 6.51489L26.4702 7.32112C26.5734 7.75567 26.7833 7.96299 27.0743 7.96299C27.4696 7.96299 27.594 7.75567 27.594 7.42481C27.594 7.09392 27.4485 6.61857 27.3231 6.16418C27.8638 6.04065 28.3847 5.97778 28.8843 5.97778C29.1342 6.66048 29.2586 7.26046 29.2586 7.7766" fill="#D5CC65"/>
<path id="Vector_7" d="M23.7418 19.8546L22.7002 18.82V15.7186H22.8046C23.7207 15.7186 24.2615 15.2433 24.2615 13.4434V11.5817H28.1137V13.6496C28.1137 15.2422 28.6145 15.7186 29.5717 15.7186H29.6761L30.7177 16.752V19.8546H30.6133C29.0521 19.8546 28.1969 18.9656 27.8227 16.8558C27.1987 19.0064 25.6996 19.8546 23.9495 19.8546H23.7407H23.7418ZM30.9254 23.5768C30.2802 24.3423 29.3019 25.272 28.5312 25.8521C28.0715 25.5004 27.4896 24.9841 26.9699 24.4879C26.4491 24.9841 25.8872 25.5004 25.4075 25.8521C24.659 25.2731 23.6174 24.3434 23.0133 23.5768C23.6174 22.8125 24.659 21.8817 25.4075 21.3016C25.8872 21.6534 26.4491 22.1695 26.9699 22.6658C27.4896 22.1695 28.0726 21.6534 28.5312 21.3016C29.3008 21.8806 30.2802 22.8114 30.9254 23.5768Z" fill="#D5CC65"/>
<path id="Vector_8" d="M38.7561 0C38.9227 0.537115 39.0059 1.07533 39.0471 1.61355L32.8851 2.68888C32.7173 2.15066 32.6341 1.61355 32.593 1.07533L38.7561 0Z" fill="#D5CC65"/>
<path id="Vector_9" d="M46.231 13.0297C46.231 14.0631 45.9822 15.5532 45.608 16.752C44.462 18.1571 43.4204 19.0273 40.6098 20.0607C39.0896 19.8346 37.3617 19.2964 35.8415 18.4483C34.3845 19.3162 32.6756 19.8545 31.0298 19.8545H30.5101L29.4685 18.82V15.7186H32.7377C32.1958 14.8693 31.8638 13.9187 31.8638 12.8631C31.8638 10.8371 33.2174 9.30628 35.6527 9.30628C38.2967 9.30628 39.8791 10.7544 39.8791 12.8212C39.8791 13.9175 39.4205 15.0138 38.651 16.0274C39.8791 16.0891 41.4205 16.1311 43.316 16.1311C43.4404 15.6337 43.5237 15.1175 43.5237 14.6212C43.5237 10.9617 40.5676 8.27176 33.6328 8.27176C33.8004 6.8446 34.1958 4.7568 34.57 4.13586C41.3583 4.13586 46.2299 7.59014 46.2299 13.0286M34.3612 14.3521C34.3612 14.9101 34.7354 15.3237 35.6527 15.5929C36.8387 15.3657 37.1729 14.8892 37.1729 14.3521C37.1729 13.7113 36.6099 13.4422 35.7571 13.4422C34.7777 13.4422 34.3612 13.7113 34.3612 14.3521Z" fill="#D5CC65"/>
</g>
<g id="Group 7760">
<g id="Group">
<path id="Vector_10" d="M57.6365 3.40698H61.17V9.73217H67.4297V3.40698H70.9632V18.8962H67.4297V12.506H61.17V18.8962H57.6365V3.40698Z" fill="white"/>
<path id="Vector_11" d="M73.1897 15.755C73.1897 13.1125 75.6316 12.1155 79.1218 12.1155H80.4088V11.6599C80.4088 10.3166 79.9935 9.58098 78.5555 9.58098C77.3117 9.58098 76.7454 10.2086 76.6144 11.1835H73.6262C73.8227 8.49789 75.9603 7.30566 78.752 7.30566C81.5437 7.30566 83.5293 8.43282 83.5293 11.5078V18.895H80.4533V17.5307C79.7992 18.4395 78.7954 19.1332 77.0075 19.1332C74.9343 19.1332 73.1908 18.1362 73.1908 15.7539M80.41 14.9312V13.9783H79.1885C77.3562 13.9783 76.2868 14.3687 76.2868 15.5819C76.2868 16.4047 76.7888 16.9462 77.9447 16.9462C79.3417 16.9462 80.41 16.1885 80.41 14.9312Z" fill="white"/>
<path id="Vector_12" d="M89.3093 17.7481L84.772 7.56604H88.1744L90.945 14.3687L93.4969 7.56604H96.5284L90.3554 22.7519H87.3027L89.3093 17.7481Z" fill="white"/>
<path id="Vector_13" d="M101.83 17.7481L97.2925 7.56604H100.695L103.466 14.3687L106.017 7.56604H109.049L102.876 22.7519H99.8233L101.83 17.7481Z" fill="white"/>
<path id="Vector_14" d="M109.661 15.755C109.661 13.1125 112.103 12.1155 115.593 12.1155H116.88V11.6599C116.88 10.3166 116.465 9.58098 115.027 9.58098C113.783 9.58098 113.217 10.2086 113.086 11.1835H110.097C110.294 8.49789 112.431 7.30566 115.223 7.30566C118.015 7.30566 120 8.43282 120 11.5078V18.895H116.924V17.5307C116.27 18.4395 115.266 19.1332 113.479 19.1332C111.405 19.1332 109.662 18.1362 109.662 15.7539M116.881 14.9312V13.9783H115.66C113.827 13.9783 112.758 14.3687 112.758 15.5819C112.758 16.4047 113.26 16.9462 114.416 16.9462C115.813 16.9462 116.881 16.1885 116.881 14.9312Z" fill="white"/>
<path id="Vector_15" d="M96.7712 5.45831C96.6013 6.32633 96.1949 6.73002 95.5342 6.73002C94.7024 6.73002 94.2327 6.05284 94.2327 4.84516C94.2327 4.50542 94.276 4.08191 94.3826 3.72236L95.5986 3.61648C95.5131 3.91319 95.4708 4.20871 95.4708 4.44147C95.4708 4.7591 95.5552 4.99288 95.8539 4.99288C96.196 4.99288 96.3448 4.54845 96.3448 3.48746L97.5386 3.3617C97.5386 4.27163 97.6884 4.65322 97.986 4.65322C98.2837 4.65322 98.4125 4.39843 98.4125 3.97604C98.4125 3.74336 98.3903 3.48857 98.327 3.19187L99.564 3.06506C99.6284 3.38269 99.6484 3.78521 99.6484 4.08191C99.6484 5.5863 99.0943 6.39028 98.0915 6.39028C97.4097 6.39028 96.9833 6.07265 96.769 5.45831" fill="white"/>
</g>
</g>
</g>
</svg>
