<svg xmlns="http://www.w3.org/2000/svg" width="9.828" height="9.624" viewBox="0 0 9.828 9.624">
  <g id="Group_6513" data-name="Group 6513" transform="translate(-1130 -1166.479)" opacity="0.31">
    <g id="caret-down" transform="translate(1139.828 1166.479) rotate(90)">
      <path id="Path_25" data-name="Path 25" d="M9.445.179A.578.578,0,0,0,9.022,0H.6A.578.578,0,0,0,.179.179.579.579,0,0,0,0,.6a.578.578,0,0,0,.179.423l4.21,4.211a.59.59,0,0,0,.846,0l4.21-4.211A.579.579,0,0,0,9.624.6.579.579,0,0,0,9.445.179Z" fill="#3e4554"/>
    </g>
    <g id="caret-down-2" data-name="caret-down" transform="translate(1135.414 1166.479) rotate(90)">
      <path id="Path_25-2" data-name="Path 25" d="M9.445.179A.578.578,0,0,0,9.022,0H.6A.578.578,0,0,0,.179.179.579.579,0,0,0,0,.6a.578.578,0,0,0,.179.423l4.21,4.211a.59.59,0,0,0,.846,0l4.21-4.211A.579.579,0,0,0,9.624.6.579.579,0,0,0,9.445.179Z" fill="#3e4554"/>
    </g>
  </g>
</svg>
