<svg xmlns="http://www.w3.org/2000/svg" width="6.466" height="9.709" viewBox="0 0 6.466 9.709">
  <g id="Group_5758" data-name="Group 5758" transform="translate(-696.288 -810.009)">
    <g id="caret-down" transform="translate(696.288 816.08)">
      <path id="Path_3073" data-name="Path 3073" d="M6.346,64.073a.388.388,0,0,0-.284-.12H.4a.388.388,0,0,0-.284.12.4.4,0,0,0,0,.568L2.949,67.47a.4.4,0,0,0,.568,0l2.829-2.829a.4.4,0,0,0,0-.568Z" transform="translate(0 -63.953)" fill="#999fa8"/>
    </g>
    <g id="caret-down-2" data-name="caret-down" transform="translate(696.288 810.009)">
      <path id="Path_3074" data-name="Path 3074" d="M6.346,67.47a.388.388,0,0,1-.284.12H.4a.388.388,0,0,1-.284-.12.4.4,0,0,1,0-.568l2.829-2.829a.4.4,0,0,1,.568,0L6.346,66.9a.4.4,0,0,1,0,.568Z" transform="translate(0 -63.953)" fill="#999fa8"/>
    </g>
  </g>
</svg>
