<svg width="24" height="24" viewBox="0 0 24 24" fill="none" xmlns="http://www.w3.org/2000/svg">
<path d="M9.15087 10.5882C10.0718 10.5882 10.8051 9.7678 10.8051 8.77948C10.8051 7.79116 10.0718 6.9708 9.15087 6.9708C8.2299 6.9708 7.49668 7.79116 7.49668 8.77948C7.49668 9.7678 8.2299 10.5882 9.15087 10.5882ZM9.15087 7.93021C9.563 7.93021 9.9143 8.30219 9.9143 8.77948C9.9143 9.25678 9.563 9.62875 9.15087 9.62875C8.73873 9.62875 8.38743 9.25678 8.38743 8.77948C8.38743 8.30219 8.73873 7.93021 9.15087 7.93021Z" fill="#E0A123" stroke="#E0A123" stroke-width="0.2"/>
<path d="M5.9792 11.3669L5.97917 11.3669L5.70817 11.4332L5.63193 11.4518V11.5303V14.217V14.317H5.73193H12.5704H12.6704V14.217V11.5205V11.4393L12.5908 11.4227L12.3076 11.3634C12.3076 11.3634 12.3075 11.3634 12.3075 11.3634C10.0515 10.8918 7.9219 10.8924 5.9792 11.3669ZM11.7505 13.4261H6.55177V12.1518C8.15439 11.8144 9.89944 11.8172 11.7505 12.1626V13.4261Z" fill="#E0A123" stroke="#E0A123" stroke-width="0.2"/>
<path d="M19.4596 10.7622V10.6622H19.3596H14.3862H14.2862V10.7622V11.6942V11.7942H14.3862H19.3596H19.4596V11.6942V10.7622Z" fill="#E0A123" stroke="#E0A123" stroke-width="0.2"/>
<path d="M19.4591 8.28125V8.18125H19.3591H14.3857H14.2857V8.28125V9.21325V9.31325H14.3857H19.3591H19.4591V9.21325V8.28125Z" fill="#E0A123" stroke="#E0A123" stroke-width="0.2"/>
<path d="M19.4596 13.2505V13.1505H19.3596H14.3862H14.2862V13.2505V14.1825V14.2825H14.3862H19.3596H19.4596V14.1825V13.2505Z" fill="#E0A123" stroke="#E0A123" stroke-width="0.2"/>
<rect x="2.65" y="4.65" width="19.2153" height="15.039" rx="1.35" stroke="#E0A123" stroke-width="1.3"/>
</svg>
