<svg width="18" height="16" viewBox="0 0 18 16" fill="none" xmlns="http://www.w3.org/2000/svg">
<path d="M7.22997 11.8299C7.61997 12.2199 8.24997 12.2199 8.63997 11.8299L12.88 7.58994C13.27 7.19994 13.27 6.56994 12.88 6.16994C12.49 5.77994 11.86 5.77994 11.47 6.16994L7.92997 9.69994L6.51997 8.28994C6.12997 7.89994 5.49997 7.89994 5.09997 8.28994C4.69997 8.67994 4.70997 9.30994 5.09997 9.69994L7.22997 11.8299Z" fill="#950037"/>
<path d="M16 0H2C0.89 0 0 0.9 0 2V14C0 15.1 0.89 16 2 16H16C17.1 16 18 15.1 18 14V2C18 0.9 17.11 0 16 0ZM16 13C16 13.55 15.55 14 15 14H3C2.45 14 2 13.55 2 13V4H16V13Z" fill="#950037"/>
</svg>
